<?xml version="1.0" encoding="UTF-8" standalone="no"?>
<!DOCTYPE svg PUBLIC "-//W3C//DTD SVG 1.1//EN"
 "http://www.w3.org/Graphics/SVG/1.1/DTD/svg11.dtd">
<!-- Generated by graphviz version 14.1.3 (20260303.0454)
 -->
<!-- Title: app_runtime_set_domain_status Pages: 1 -->
<svg width="386pt" height="66pt"
 viewBox="0.00 0.00 386.00 66.00" xmlns="http://www.w3.org/2000/svg" xmlns:xlink="http://www.w3.org/1999/xlink">

<svg id="main" version="1.1" xmlns="http://www.w3.org/2000/svg" xmlns:xlink="http://www.w3.org/1999/xlink" xml:space="preserve">

<style type="text/css"><![CDATA[
.node, .edge {opacity: 0.7;}
.node.selected, .edge.selected {opacity: 1;}
.edge:hover path { stroke: red; }
.edge:hover polygon { stroke: red; fill: red; }
]]></style>
<script type="application/ecmascript" xlink:href="svg.min.js"/>
<svg id="graph" class="graph">
<g id="graph0" class="graph" transform="scale(1 1) rotate(0) translate(4 62)">
<title>app_runtime_set_domain_status</title>
<!-- Node1 -->
<g id="Node000001" class="node">
<title>Node1</title>
<g id="a_Node000001"><a xlink:title=" ">
<polygon fill="#999999" stroke="#666666" points="378,-45 253.25,-45 253.25,-13 378,-13 378,-45"/>
<text xml:space="preserve" text-anchor="start" x="261.25" y="-31.5" font-family="Helvetica,sans-Serif" font-size="10.00">app_runtime_set_domain</text>
<text xml:space="preserve" text-anchor="middle" x="315.62" y="-19.5" font-family="Helvetica,sans-Serif" font-size="10.00">_status</text>
</a>
</g>
</g>
<!-- Node2 -->
<g id="Node000002" class="node">
<title>Node2</title>
<g id="a_Node000002"><a xlink:href="core__task_8c.html#a2daa86fc13a12eb426414bbf8211eef3" target="_top" xlink:title=" ">
<polygon fill="white" stroke="#666666" points="217.25,-58 94.75,-58 94.75,-38 217.25,-38 217.25,-58"/>
<text xml:space="preserve" text-anchor="middle" x="156" y="-44.5" font-family="Helvetica,sans-Serif" font-size="10.00">core_process_command</text>
</a>
</g>
</g>
<!-- Node1&#45;&gt;Node2 -->
<g id="edge1_Node000001_Node000002" class="edge">
<title>Node1&#45;&gt;Node2</title>
<g id="a_edge1_Node000001_Node000002"><a xlink:title=" ">
<path fill="none" stroke="#63b8ff" d="M241.55,-37.81C233.55,-38.77 225.46,-39.75 217.63,-40.69"/>
<polygon fill="#63b8ff" stroke="#63b8ff" points="241.77,-41.31 251.28,-36.64 240.93,-34.36 241.77,-41.31"/>
</a>
</g>
</g>
<!-- Node6 -->
<g id="Node000006" class="node">
<title>Node6</title>
<g id="a_Node000006"><a xlink:href="core__task_8c.html#a80193b9cb4e785937ae283aafc30615c" target="_top" xlink:title=" ">
<polygon fill="white" stroke="#666666" points="193.62,-20 118.38,-20 118.38,0 193.62,0 193.62,-20"/>
<text xml:space="preserve" text-anchor="middle" x="156" y="-6.5" font-family="Helvetica,sans-Serif" font-size="10.00">core_run_fsm</text>
</a>
</g>
</g>
<!-- Node1&#45;&gt;Node6 -->
<g id="edge3_Node000001_Node000006" class="edge">
<title>Node1&#45;&gt;Node6</title>
<g id="a_edge3_Node000001_Node000006"><a xlink:title=" ">
<path fill="none" stroke="#63b8ff" d="M241.5,-20.19C225.07,-18.21 208.32,-16.19 194.11,-14.47"/>
<polygon fill="#63b8ff" stroke="#63b8ff" points="240.93,-23.64 251.28,-21.36 241.77,-16.69 240.93,-23.64"/>
</a>
</g>
</g>
<!-- Node3 -->
<g id="Node000003" class="node">
<title>Node3</title>
<g id="a_Node000003"><a xlink:href="core__task_8c.html#a7c37479bac98972034be8e97b38f1f47" target="_top" xlink:title=" ">
<polygon fill="#fff0f0" stroke="red" points="58.75,-39 0,-39 0,-19 58.75,-19 58.75,-39"/>
<text xml:space="preserve" text-anchor="middle" x="29.38" y="-25.5" font-family="Helvetica,sans-Serif" font-size="10.00">core_task</text>
</a>
</g>
</g>
<!-- Node2&#45;&gt;Node3 -->
<g id="edge2_Node000002_Node000003" class="edge">
<title>Node2&#45;&gt;Node3</title>
<g id="a_edge2_Node000002_Node000003"><a xlink:title=" ">
<path fill="none" stroke="#63b8ff" d="M83.2,-37.05C74.67,-35.75 66.37,-34.49 58.98,-33.36"/>
<polygon fill="#63b8ff" stroke="#63b8ff" points="82.6,-40.5 93.02,-38.55 83.66,-33.58 82.6,-40.5"/>
</a>
</g>
</g>
<!-- Node6&#45;&gt;Node3 -->
<g id="edge4_Node000006_Node000003" class="edge">
<title>Node6&#45;&gt;Node3</title>
<g id="a_edge4_Node000006_Node000003"><a xlink:title=" ">
<path fill="none" stroke="#63b8ff" d="M106.57,-17.38C90.55,-19.83 73.24,-22.46 59.18,-24.61"/>
<polygon fill="#63b8ff" stroke="#63b8ff" points="107.09,-20.84 116.45,-15.88 106.04,-13.92 107.09,-20.84"/>
</a>
</g>
</g>
</g>
</svg>
</svg>

<style type='text/css'>
<![CDATA[
[data-mouse-over-selected='false'] { opacity: 0.7; }
[data-mouse-over-selected='true']  { opacity: 1.0; }
]]>
</style>
<script type="application/ecmascript"><![CDATA[
document.addEventListener('DOMContentLoaded', (event) => {
  highlightEdges();
  highlightAdjacentNodes();
});
]]></script>
</svg>
