<?xml version="1.0" encoding="UTF-8" standalone="no"?>
<!DOCTYPE svg PUBLIC "-//W3C//DTD SVG 1.1//EN"
 "http://www.w3.org/Graphics/SVG/1.1/DTD/svg11.dtd">
<!-- Generated by graphviz version 14.1.3 (20260303.0454)
 -->
<!-- Title: app_events_publish_stop_requested Pages: 1 -->
<svg width="340pt" height="40pt"
 viewBox="0.00 0.00 340.00 40.00" xmlns="http://www.w3.org/2000/svg" xmlns:xlink="http://www.w3.org/1999/xlink">
<g id="graph0" class="graph" transform="scale(1 1) rotate(0) translate(4 36)">
<title>app_events_publish_stop_requested</title>
<!-- Node1 -->
<g id="Node000001" class="node">
<title>Node1</title>
<g id="a_Node000001"><a xlink:title=" ">
<polygon fill="#999999" stroke="#666666" points="331.5,-32 229.25,-32 229.25,0 331.5,0 331.5,-32"/>
<text xml:space="preserve" text-anchor="start" x="237.25" y="-18.5" font-family="Helvetica,sans-Serif" font-size="10.00">app_events_publish</text>
<text xml:space="preserve" text-anchor="middle" x="280.38" y="-6.5" font-family="Helvetica,sans-Serif" font-size="10.00">_stop_requested</text>
</a>
</g>
</g>
<!-- Node2 -->
<g id="Node000002" class="node">
<title>Node2</title>
<g id="a_Node000002"><a xlink:href="web__server_8c.html#a8c9c0e181cc00b9e84ab2af1e55a2723" target="_top" xlink:title=" ">
<polygon fill="white" stroke="#666666" points="193.25,-26 121.75,-26 121.75,-6 193.25,-6 193.25,-26"/>
<text xml:space="preserve" text-anchor="middle" x="157.5" y="-12.5" font-family="Helvetica,sans-Serif" font-size="10.00">stop_handler</text>
</a>
</g>
</g>
<!-- Node1&#45;&gt;Node2 -->
<g id="edge1_Node000001_Node000002" class="edge">
<title>Node1&#45;&gt;Node2</title>
<g id="a_edge1_Node000001_Node000002"><a xlink:title=" ">
<path fill="none" stroke="#63b8ff" d="M217.56,-16C209.28,-16 201.03,-16 193.44,-16"/>
<polygon fill="#63b8ff" stroke="#63b8ff" points="217.3,-19.5 227.3,-16 217.3,-12.5 217.3,-19.5"/>
</a>
</g>
</g>
<!-- Node3 -->
<g id="Node000003" class="node">
<title>Node3</title>
<g id="a_Node000003"><a xlink:href="web__server_8c.html#a440992a6db6af61fb71e65ddf68e71b0" target="_top" xlink:title=" ">
<polygon fill="#fff0f0" stroke="red" points="85.75,-26 0,-26 0,-6 85.75,-6 85.75,-26"/>
<text xml:space="preserve" text-anchor="middle" x="42.88" y="-12.5" font-family="Helvetica,sans-Serif" font-size="10.00">start_webserver</text>
</a>
</g>
</g>
<!-- Node2&#45;&gt;Node3 -->
<g id="edge2_Node000002_Node000003" class="edge">
<title>Node2&#45;&gt;Node3</title>
<g id="a_edge2_Node000002_Node000003"><a xlink:title=" ">
<path fill="none" stroke="#63b8ff" d="M110.07,-16C102.1,-16 93.85,-16 86,-16"/>
<polygon fill="#63b8ff" stroke="#63b8ff" points="109.97,-19.5 119.97,-16 109.97,-12.5 109.97,-19.5"/>
</a>
</g>
</g>
</g>
</svg>
