<?xml version="1.0" encoding="UTF-8" standalone="no"?>
<!DOCTYPE svg PUBLIC "-//W3C//DTD SVG 1.1//EN"
 "http://www.w3.org/Graphics/SVG/1.1/DTD/svg11.dtd">
<!-- Generated by graphviz version 14.1.3 (20260303.0454)
 -->
<!-- Title: main/blink_example_main.c Pages: 1 -->
<!--zoomable 208 -->

<svg id="main" version="1.1" xmlns="http://www.w3.org/2000/svg" xmlns:xlink="http://www.w3.org/1999/xlink" xml:space="preserve" onload="init(evt)">

<style type="text/css"><![CDATA[
.node, .edge {opacity: 0.7;}
.node.selected, .edge.selected {opacity: 1;}
.edge:hover path { stroke: red; }
.edge:hover polygon { stroke: red; fill: red; }
]]></style>

<defs>
  <circle id="rim" cx="0" cy="0" r="7"/>
  <circle id="rim2" cx="0" cy="0" r="3.5"/>
  <g id="zoomPlus">
    <use xlink:href="#rim" fill="#404040"><set attributeName="fill" to="#808080" begin="zoomplus.mouseover" end="zoomplus.mouseout"/></use>
    <path d="M-4,0h8M0,-4v8" fill="none" stroke="white" stroke-width="1.5" pointer-events="none"/>
  </g>
  <g id="zoomMin">
    <use xlink:href="#rim" fill="#404040"><set attributeName="fill" to="#808080" begin="zoomminus.mouseover" end="zoomminus.mouseout"/></use>
    <path d="M-4,0h8" fill="none" stroke="white" stroke-width="1.5" pointer-events="none"/>
  </g>
  <g id="arrowUp" transform="translate(30 24)">
    <use xlink:href="#rim"/>
    <path pointer-events="none" fill="none" stroke="white" stroke-width="1.5" d="M0,-3.0v7 M-2.5,-0.5L0,-3.0L2.5,-0.5"/>
  </g>
  <g id="arrowRight" transform="rotate(90) translate(36 -43)">
    <use xlink:href="#rim"/>
    <path pointer-events="none" fill="none" stroke="white" stroke-width="1.5" d="M0,-3.0v7 M-2.5,-0.5L0,-3.0L2.5,-0.5"/>
  </g>
  <g id="arrowDown" transform="rotate(180) translate(-30 -48)">
    <use xlink:href="#rim"/>
    <path pointer-events="none" fill="none" stroke="white" stroke-width="1.5" d="M0,-3.0v7 M-2.5,-0.5L0,-3.0L2.5,-0.5"/>
  </g>
  <g id="arrowLeft" transform="rotate(270) translate(-36 17)">
    <use xlink:href="#rim"/>
    <path pointer-events="none" fill="none" stroke="white" stroke-width="1.5" d="M0,-3.0v7 M-2.5,-0.5L0,-3.0L2.5,-0.5"/>
  </g>
  <g id="resetDef">
    <use xlink:href="#rim2" fill="#404040"><set attributeName="fill" to="#808080" begin="reset.mouseover" end="reset.mouseout"/></use>
  </g>
</defs>
<script type="application/ecmascript">
var viewWidth = 688;
var viewHeight = 208;
var sectionId = 'dynsection-0';
</script>
<script type="application/ecmascript" xlink:href="svg.min.js"/>
<svg id="graph" class="graph">
<g id="viewport">
<title>main/blink_example_main.c</title>
<!-- Node1 -->
<g id="Node000001" class="node">
<title>Node1</title>
<g id="a_Node000001"><a xlink:title=" ">
<polygon fill="#999999" stroke="#666666" points="473.5,-200 371.25,-200 371.25,-168 473.5,-168 473.5,-200"/>
<text xml:space="preserve" text-anchor="start" x="379.25" y="-186.5" font-family="Helvetica,sans-Serif" font-size="10.00">main/blink_example</text>
<text xml:space="preserve" text-anchor="middle" x="422.38" y="-174.5" font-family="Helvetica,sans-Serif" font-size="10.00">_main.c</text>
</a>
</g>
</g>
<!-- Node2 -->
<g id="Node000002" class="node">
<title>Node2</title>
<g id="a_Node000002"><a xlink:title=" ">
<polygon fill="#e0e0e0" stroke="#999999" points="210.38,-132 152.38,-132 152.38,-112 210.38,-112 210.38,-132"/>
<text xml:space="preserve" text-anchor="middle" x="181.38" y="-118.5" font-family="Helvetica,sans-Serif" font-size="10.00">esp_log.h</text>
</a>
</g>
</g>
<!-- Node1&#45;&gt;Node2 -->
<g id="edge1_Node000001_Node000002" class="edge">
<title>Node1&#45;&gt;Node2</title>
<g id="a_edge1_Node000001_Node000002"><a xlink:title=" ">
<path fill="none" stroke="#63b8ff" d="M370.97,-170.2C326.36,-159.1 262.68,-143.24 221.68,-133.03"/>
<polygon fill="#63b8ff" stroke="#63b8ff" points="222.77,-129.7 212.22,-130.68 221.08,-136.49 222.77,-129.7"/>
</a>
</g>
</g>
<!-- Node3 -->
<g id="Node000003" class="node">
<title>Node3</title>
<g id="a_Node000003"><a xlink:href="app__queue_8h.html" target="_top" xlink:title=" ">
<polygon fill="white" stroke="#666666" points="300.12,-132 228.62,-132 228.62,-112 300.12,-112 300.12,-132"/>
<text xml:space="preserve" text-anchor="middle" x="264.38" y="-118.5" font-family="Helvetica,sans-Serif" font-size="10.00">app_queue.h</text>
</a>
</g>
</g>
<!-- Node1&#45;&gt;Node3 -->
<g id="edge2_Node000001_Node000003" class="edge">
<title>Node1&#45;&gt;Node3</title>
<g id="a_edge2_Node000001_Node000003"><a xlink:title=" ">
<path fill="none" stroke="#63b8ff" d="M381.69,-167.55C356.31,-157.91 323.98,-145.64 299.69,-136.41"/>
<polygon fill="#63b8ff" stroke="#63b8ff" points="301.16,-133.22 290.56,-132.95 298.67,-139.77 301.16,-133.22"/>
</a>
</g>
</g>
<!-- Node9 -->
<g id="Node000009" class="node">
<title>Node9</title>
<g id="a_Node000009"><a xlink:href="app__runtime_8h.html" target="_top" xlink:title=" ">
<polygon fill="white" stroke="#666666" points="427.12,-76 349.62,-76 349.62,-56 427.12,-56 427.12,-76"/>
<text xml:space="preserve" text-anchor="middle" x="388.38" y="-62.5" font-family="Helvetica,sans-Serif" font-size="10.00">app_runtime.h</text>
</a>
</g>
</g>
<!-- Node1&#45;&gt;Node9 -->
<g id="edge9_Node000001_Node000009" class="edge">
<title>Node1&#45;&gt;Node9</title>
<g id="a_edge9_Node000001_Node000009"><a xlink:title=" ">
<path fill="none" stroke="#63b8ff" d="M400.84,-167.66C390.1,-158.64 378.19,-146.23 372.38,-132 366.33,-117.19 371.41,-99.51 377.4,-86.33"/>
<polygon fill="#63b8ff" stroke="#63b8ff" points="380.51,-87.94 381.96,-77.44 374.28,-84.74 380.51,-87.94"/>
</a>
</g>
</g>
<!-- Node10 -->
<g id="Node000010" class="node">
<title>Node10</title>
<g id="a_Node000010"><a xlink:href="config__manager_8h.html" target="_top" xlink:title=" ">
<polygon fill="white" stroke="#666666" points="538,-76 444.75,-76 444.75,-56 538,-56 538,-76"/>
<text xml:space="preserve" text-anchor="middle" x="491.38" y="-62.5" font-family="Helvetica,sans-Serif" font-size="10.00">config_manager.h</text>
</a>
</g>
</g>
<!-- Node1&#45;&gt;Node10 -->
<g id="edge12_Node000001_Node000010" class="edge">
<title>Node1&#45;&gt;Node10</title>
<g id="a_edge12_Node000001_Node000010"><a xlink:title=" ">
<path fill="none" stroke="#63b8ff" d="M441.36,-167.77C451.85,-158.44 464.35,-145.69 472.38,-132 480.39,-118.32 485.24,-101.01 488.02,-87.69"/>
<polygon fill="#63b8ff" stroke="#63b8ff" points="491.46,-88.35 489.83,-77.89 484.58,-87.09 491.46,-88.35"/>
</a>
</g>
</g>
<!-- Node12 -->
<g id="Node000012" class="node">
<title>Node12</title>
<g id="a_Node000012"><a xlink:href="core__task_8h.html" target="_top" xlink:title=" ">
<polygon fill="white" stroke="#666666" points="586.88,-132 519.88,-132 519.88,-112 586.88,-112 586.88,-132"/>
<text xml:space="preserve" text-anchor="middle" x="553.38" y="-118.5" font-family="Helvetica,sans-Serif" font-size="10.00">core_task.h</text>
</a>
</g>
</g>
<!-- Node1&#45;&gt;Node12 -->
<g id="edge15_Node000001_Node000012" class="edge">
<title>Node1&#45;&gt;Node12</title>
<g id="a_edge15_Node000001_Node000012"><a xlink:title=" ">
<path fill="none" stroke="#63b8ff" d="M456.11,-167.55C476.58,-158.17 502.51,-146.3 522.45,-137.17"/>
<polygon fill="#63b8ff" stroke="#63b8ff" points="523.82,-140.38 531.46,-133.04 520.91,-134.02 523.82,-140.38"/>
</a>
</g>
</g>
<!-- Node13 -->
<g id="Node000013" class="node">
<title>Node13</title>
<g id="a_Node000013"><a xlink:href="web__server_8h.html" target="_top" xlink:title=" ">
<polygon fill="white" stroke="#666666" points="679.62,-132 605.12,-132 605.12,-112 679.62,-112 679.62,-132"/>
<text xml:space="preserve" text-anchor="middle" x="642.38" y="-118.5" font-family="Helvetica,sans-Serif" font-size="10.00">web_server.h</text>
</a>
</g>
</g>
<!-- Node1&#45;&gt;Node13 -->
<g id="edge16_Node000001_Node000013" class="edge">
<title>Node1&#45;&gt;Node13</title>
<g id="a_edge16_Node000001_Node000013"><a xlink:title=" ">
<path fill="none" stroke="#63b8ff" d="M473.96,-168.93C511.09,-158.81 560.73,-145.27 596.48,-135.52"/>
<polygon fill="#63b8ff" stroke="#63b8ff" points="597.39,-138.9 606.11,-132.89 595.54,-132.14 597.39,-138.9"/>
</a>
</g>
</g>
<!-- Node14 -->
<g id="Node000014" class="node">
<title>Node14</title>
<g id="a_Node000014"><a xlink:href="wifi__manager_8h.html" target="_top" xlink:title=" ">
<polygon fill="white" stroke="#666666" points="463.38,-132 381.38,-132 381.38,-112 463.38,-112 463.38,-132"/>
<text xml:space="preserve" text-anchor="middle" x="422.38" y="-118.5" font-family="Helvetica,sans-Serif" font-size="10.00">wifi_manager.h</text>
</a>
</g>
</g>
<!-- Node1&#45;&gt;Node14 -->
<g id="edge17_Node000001_Node000014" class="edge">
<title>Node1&#45;&gt;Node14</title>
<g id="a_edge17_Node000001_Node000014"><a xlink:title=" ">
<path fill="none" stroke="#63b8ff" d="M422.38,-167.55C422.38,-160.34 422.38,-151.66 422.38,-143.88"/>
<polygon fill="#63b8ff" stroke="#63b8ff" points="425.88,-143.92 422.38,-133.92 418.88,-143.92 425.88,-143.92"/>
</a>
</g>
</g>
<!-- Node4 -->
<g id="Node000004" class="node">
<title>Node4</title>
<g id="a_Node000004"><a xlink:title=" ">
<polygon fill="#e0e0e0" stroke="#999999" points="327.25,-20 271.5,-20 271.5,0 327.25,0 327.25,-20"/>
<text xml:space="preserve" text-anchor="middle" x="299.38" y="-6.5" font-family="Helvetica,sans-Serif" font-size="10.00">stdbool.h</text>
</a>
</g>
</g>
<!-- Node3&#45;&gt;Node4 -->
<g id="edge3_Node000003_Node000004" class="edge">
<title>Node3&#45;&gt;Node4</title>
<g id="a_edge3_Node000003_Node000004"><a xlink:title=" ">
<path fill="none" stroke="#63b8ff" d="M261.01,-111.81C256.84,-98.89 251.09,-74.81 258.38,-56 262.48,-45.4 270.37,-35.77 278.14,-28.16"/>
<polygon fill="#63b8ff" stroke="#63b8ff" points="280.45,-30.79 285.53,-21.49 275.76,-25.59 280.45,-30.79"/>
</a>
</g>
</g>
<!-- Node5 -->
<g id="Node000005" class="node">
<title>Node5</title>
<g id="a_Node000005"><a xlink:title=" ">
<polygon fill="#e0e0e0" stroke="#999999" points="106.75,-76 0,-76 0,-56 106.75,-56 106.75,-76"/>
<text xml:space="preserve" text-anchor="middle" x="53.38" y="-62.5" font-family="Helvetica,sans-Serif" font-size="10.00">freertos/FreeRTOS.h</text>
</a>
</g>
</g>
<!-- Node3&#45;&gt;Node5 -->
<g id="edge4_Node000003_Node000005" class="edge">
<title>Node3&#45;&gt;Node5</title>
<g id="a_edge4_Node000003_Node000005"><a xlink:title=" ">
<path fill="none" stroke="#63b8ff" d="M228.58,-111.84C193.59,-102.88 140.08,-89.19 101.4,-79.29"/>
<polygon fill="#63b8ff" stroke="#63b8ff" points="102.43,-75.94 91.88,-76.85 100.7,-82.72 102.43,-75.94"/>
</a>
</g>
</g>
<!-- Node6 -->
<g id="Node000006" class="node">
<title>Node6</title>
<g id="a_Node000006"><a xlink:title=" ">
<polygon fill="#e0e0e0" stroke="#999999" points="211.62,-76 125.12,-76 125.12,-56 211.62,-56 211.62,-76"/>
<text xml:space="preserve" text-anchor="middle" x="168.38" y="-62.5" font-family="Helvetica,sans-Serif" font-size="10.00">freertos/queue.h</text>
</a>
</g>
</g>
<!-- Node3&#45;&gt;Node6 -->
<g id="edge5_Node000003_Node000006" class="edge">
<title>Node3&#45;&gt;Node6</title>
<g id="a_edge5_Node000003_Node000006"><a xlink:title=" ">
<path fill="none" stroke="#63b8ff" d="M247.65,-111.59C233.15,-103.44 211.9,-91.48 195.05,-82"/>
<polygon fill="#63b8ff" stroke="#63b8ff" points="196.98,-79.07 186.55,-77.22 193.55,-85.17 196.98,-79.07"/>
</a>
</g>
</g>
<!-- Node7 -->
<g id="Node000007" class="node">
<title>Node7</title>
<g id="a_Node000007"><a xlink:href="app__cmd_8h.html" target="_top" xlink:title=" ">
<polygon fill="white" stroke="#666666" points="331.38,-76 267.38,-76 267.38,-56 331.38,-56 331.38,-76"/>
<text xml:space="preserve" text-anchor="middle" x="299.38" y="-62.5" font-family="Helvetica,sans-Serif" font-size="10.00">app_cmd.h</text>
</a>
</g>
</g>
<!-- Node3&#45;&gt;Node7 -->
<g id="edge6_Node000003_Node000007" class="edge">
<title>Node3&#45;&gt;Node7</title>
<g id="a_edge6_Node000003_Node000007"><a xlink:title=" ">
<path fill="none" stroke="#63b8ff" d="M270.47,-111.59C275.09,-104.47 281.58,-94.45 287.24,-85.72"/>
<polygon fill="#63b8ff" stroke="#63b8ff" points="290.02,-87.86 292.53,-77.57 284.15,-84.06 290.02,-87.86"/>
</a>
</g>
</g>
<!-- Node7&#45;&gt;Node4 -->
<g id="edge7_Node000007_Node000004" class="edge">
<title>Node7&#45;&gt;Node4</title>
<g id="a_edge7_Node000007_Node000004"><a xlink:title=" ">
<path fill="none" stroke="#63b8ff" d="M299.38,-55.59C299.38,-49.01 299.38,-39.96 299.38,-31.73"/>
<polygon fill="#63b8ff" stroke="#63b8ff" points="302.88,-31.81 299.38,-21.81 295.88,-31.81 302.88,-31.81"/>
</a>
</g>
</g>
<!-- Node8 -->
<g id="Node000008" class="node">
<title>Node8</title>
<g id="a_Node000008"><a xlink:title=" ">
<polygon fill="#e0e0e0" stroke="#999999" points="412.5,-20 364.25,-20 364.25,0 412.5,0 412.5,-20"/>
<text xml:space="preserve" text-anchor="middle" x="388.38" y="-6.5" font-family="Helvetica,sans-Serif" font-size="10.00">stdint.h</text>
</a>
</g>
</g>
<!-- Node7&#45;&gt;Node8 -->
<g id="edge8_Node000007_Node000008" class="edge">
<title>Node7&#45;&gt;Node8</title>
<g id="a_edge8_Node000007_Node000008"><a xlink:title=" ">
<path fill="none" stroke="#63b8ff" d="M314.88,-55.59C328.2,-47.51 347.65,-35.71 363.2,-26.27"/>
<polygon fill="#63b8ff" stroke="#63b8ff" points="364.72,-29.44 371.46,-21.26 361.09,-23.46 364.72,-29.44"/>
</a>
</g>
</g>
<!-- Node9&#45;&gt;Node4 -->
<g id="edge10_Node000009_Node000004" class="edge">
<title>Node9&#45;&gt;Node4</title>
<g id="a_edge10_Node000009_Node000004"><a xlink:title=" ">
<path fill="none" stroke="#63b8ff" d="M372.87,-55.59C359.55,-47.51 340.1,-35.71 324.55,-26.27"/>
<polygon fill="#63b8ff" stroke="#63b8ff" points="326.66,-23.46 316.29,-21.26 323.03,-29.44 326.66,-23.46"/>
</a>
</g>
</g>
<!-- Node9&#45;&gt;Node8 -->
<g id="edge11_Node000009_Node000008" class="edge">
<title>Node9&#45;&gt;Node8</title>
<g id="a_edge11_Node000009_Node000008"><a xlink:title=" ">
<path fill="none" stroke="#63b8ff" d="M388.38,-55.59C388.38,-49.01 388.38,-39.96 388.38,-31.73"/>
<polygon fill="#63b8ff" stroke="#63b8ff" points="391.88,-31.81 388.38,-21.81 384.88,-31.81 391.88,-31.81"/>
</a>
</g>
</g>
<!-- Node10&#45;&gt;Node8 -->
<g id="edge13_Node000010_Node000008" class="edge">
<title>Node10&#45;&gt;Node8</title>
<g id="a_edge13_Node000010_Node000008"><a xlink:title=" ">
<path fill="none" stroke="#63b8ff" d="M473.43,-55.59C457.73,-47.36 434.64,-35.26 416.49,-25.74"/>
<polygon fill="#63b8ff" stroke="#63b8ff" points="418.28,-22.73 407.8,-21.18 415.03,-28.93 418.28,-22.73"/>
</a>
</g>
</g>
<!-- Node11 -->
<g id="Node000011" class="node">
<title>Node11</title>
<g id="a_Node000011"><a xlink:title=" ">
<polygon fill="#e0e0e0" stroke="#999999" points="519.62,-20 463.12,-20 463.12,0 519.62,0 519.62,-20"/>
<text xml:space="preserve" text-anchor="middle" x="491.38" y="-6.5" font-family="Helvetica,sans-Serif" font-size="10.00">esp_err.h</text>
</a>
</g>
</g>
<!-- Node10&#45;&gt;Node11 -->
<g id="edge14_Node000010_Node000011" class="edge">
<title>Node10&#45;&gt;Node11</title>
<g id="a_edge14_Node000010_Node000011"><a xlink:title=" ">
<path fill="none" stroke="#63b8ff" d="M491.38,-55.59C491.38,-49.01 491.38,-39.96 491.38,-31.73"/>
<polygon fill="#63b8ff" stroke="#63b8ff" points="494.88,-31.81 491.38,-21.81 487.88,-31.81 494.88,-31.81"/>
</a>
</g>
</g>
<!-- Node14&#45;&gt;Node10 -->
<g id="edge18_Node000014_Node000010" class="edge">
<title>Node14&#45;&gt;Node10</title>
<g id="a_edge18_Node000014_Node000010"><a xlink:title=" ">
<path fill="none" stroke="#63b8ff" d="M434.39,-111.59C444.39,-103.77 458.84,-92.46 470.68,-83.19"/>
<polygon fill="#63b8ff" stroke="#63b8ff" points="472.58,-86.15 478.3,-77.23 468.27,-80.64 472.58,-86.15"/>
</a>
</g>
</g>
</g>
</svg>

<g id="navigator" transform="translate(0 0)" fill="#404254">
  <rect fill="#f2f5e9" fill-opacity="0.5" stroke="#606060" stroke-width=".5" x="0" y="0" width="60" height="60"/>
  <use id="zoomplus" xlink:href="#zoomPlus" x="17" y="9" onmousedown="handleZoom(evt,'in')"/>
  <use id="zoomminus" xlink:href="#zoomMin" x="42" y="9" onmousedown="handleZoom(evt,'out')"/>
  <use id="reset" xlink:href="#resetDef" x="30" y="36" onmousedown="handleReset()"/>
   <use id="arrowup" xlink:href="#arrowUp" x="0" y="0" onmousedown="handlePan(0,-1)"/>
  <use id="arrowright" xlink:href="#arrowRight" x="0" y="0" onmousedown="handlePan(1,0)"/>
  <use id="arrowdown" xlink:href="#arrowDown" x="0" y="0" onmousedown="handlePan(0,1)"/>
  <use id="arrowleft" xlink:href="#arrowLeft" x="0" y="0" onmousedown="handlePan(-1,0)"/>
</g>
<svg viewBox="0 0 15 15" width="100%" height="30px" preserveAspectRatio="xMaxYMin meet">
 <g id="arrow_out" transform="scale(0.3 0.3)">
  <a xlink:href="blink__example__main_8c__incl_org.svg" target="_base">
   <rect id="button" ry="5" rx="5" y="6" x="6" height="38" width="38"
        fill="#f2f5e9" fill-opacity="0.5" stroke="#606060" stroke-width="1.0"/>
   <path id="arrow"
     d="M 11.500037,31.436501 C 11.940474,20.09759 22.043105,11.32322 32.158766,21.979434 L 37.068811,17.246167 C 37.068811,17.246167 37.088388,32 37.088388,32 L 22.160133,31.978069 C 22.160133,31.978069 26.997745,27.140456 26.997745,27.140456 C 18.528582,18.264221 13.291696,25.230495 11.500037,31.436501 z"
     style="fill:#404040;"/>
  </a>
 </g>
</svg>

<style type='text/css'>
<![CDATA[
[data-mouse-over-selected='false'] { opacity: 0.7; }
[data-mouse-over-selected='true']  { opacity: 1.0; }
]]>
</style>
<script type="application/ecmascript"><![CDATA[
document.addEventListener('DOMContentLoaded', (event) => {
  highlightEdges();
  highlightAdjacentNodes();
});
]]></script>
</svg>
