<?xml version="1.0" encoding="UTF-8" standalone="no"?>
<!DOCTYPE svg PUBLIC "-//W3C//DTD SVG 1.1//EN"
 "http://www.w3.org/Graphics/SVG/1.1/DTD/svg11.dtd">
<!-- Generated by graphviz version 14.1.3 (20260303.0454)
 -->
<!-- Title: app_main Pages: 1 -->
<svg width="326pt" height="332pt"
 viewBox="0.00 0.00 326.00 332.00" xmlns="http://www.w3.org/2000/svg" xmlns:xlink="http://www.w3.org/1999/xlink">
<g id="graph0" class="graph" transform="scale(1 1) rotate(0) translate(4 328)">
<title>app_main</title>
<!-- Node1 -->
<g id="Node000001" class="node">
<title>Node1</title>
<g id="a_Node000001"><a xlink:title=" ">
<polygon fill="#999999" stroke="#666666" points="58,-229 0,-229 0,-209 58,-209 58,-229"/>
<text xml:space="preserve" text-anchor="middle" x="29" y="-215.5" font-family="Helvetica,sans-Serif" font-size="10.00">app_main</text>
</a>
</g>
</g>
<!-- Node2 -->
<g id="Node000002" class="node">
<title>Node2</title>
<g id="a_Node000002"><a xlink:href="app__queue_8c.html#a89ea3b4a122e6403a054d5651e255bb6" target="_top" xlink:title=" ">
<polygon fill="white" stroke="#666666" points="178.25,-324 97,-324 97,-304 178.25,-304 178.25,-324"/>
<text xml:space="preserve" text-anchor="middle" x="137.62" y="-310.5" font-family="Helvetica,sans-Serif" font-size="10.00">app_queue_init</text>
</a>
</g>
</g>
<!-- Node1&#45;&gt;Node2 -->
<g id="edge1_Node000001_Node000002" class="edge">
<title>Node1&#45;&gt;Node2</title>
<g id="a_edge1_Node000001_Node000002"><a xlink:title=" ">
<path fill="none" stroke="#63b8ff" d="M36.49,-229.38C46.91,-245.34 68.78,-276.02 94,-295 95.51,-296.14 97.11,-297.23 98.75,-298.27"/>
<polygon fill="#63b8ff" stroke="#63b8ff" points="96.77,-301.17 107.22,-302.94 100.15,-295.04 96.77,-301.17"/>
</a>
</g>
</g>
<!-- Node3 -->
<g id="Node000003" class="node">
<title>Node3</title>
<g id="a_Node000003"><a xlink:href="app__runtime_8c.html#a3cd4fe475b0557fec78f3b43b28ef64d" target="_top" xlink:title=" ">
<polygon fill="white" stroke="#666666" points="181.25,-286 94,-286 94,-266 181.25,-266 181.25,-286"/>
<text xml:space="preserve" text-anchor="middle" x="137.62" y="-272.5" font-family="Helvetica,sans-Serif" font-size="10.00">app_runtime_init</text>
</a>
</g>
</g>
<!-- Node1&#45;&gt;Node3 -->
<g id="edge2_Node000001_Node000003" class="edge">
<title>Node1&#45;&gt;Node3</title>
<g id="a_edge2_Node000001_Node000003"><a xlink:title=" ">
<path fill="none" stroke="#63b8ff" d="M46.28,-229.38C59.04,-237.34 77.36,-248.39 94,-257 96.52,-258.3 99.15,-259.61 101.8,-260.88"/>
<polygon fill="#63b8ff" stroke="#63b8ff" points="100.13,-263.96 110.68,-264.99 103.07,-257.61 100.13,-263.96"/>
</a>
</g>
</g>
<!-- Node4 -->
<g id="Node000004" class="node">
<title>Node4</title>
<g id="a_Node000004"><a xlink:href="config__manager_8c.html#a24f82dd4e037bf436184a9676127c6ff" target="_top" xlink:title=" ">
<polygon fill="white" stroke="#666666" points="167.75,-248 107.5,-248 107.5,-228 167.75,-228 167.75,-248"/>
<text xml:space="preserve" text-anchor="middle" x="137.62" y="-234.5" font-family="Helvetica,sans-Serif" font-size="10.00">config_init</text>
</a>
</g>
</g>
<!-- Node1&#45;&gt;Node4 -->
<g id="edge3_Node000001_Node000004" class="edge">
<title>Node1&#45;&gt;Node4</title>
<g id="a_edge3_Node000001_Node000004"><a xlink:title=" ">
<path fill="none" stroke="#63b8ff" d="M58.29,-224.04C69.82,-226.1 83.36,-228.51 95.92,-230.75"/>
<polygon fill="#63b8ff" stroke="#63b8ff" points="95.13,-234.16 105.59,-232.47 96.36,-227.27 95.13,-234.16"/>
</a>
</g>
</g>
<!-- Node7 -->
<g id="Node000007" class="node">
<title>Node7</title>
<g id="a_Node000007"><a xlink:href="core__task_8c.html#aa37b7dddcc4e536d8486b53c09d12580" target="_top" xlink:title=" ">
<polygon fill="white" stroke="#666666" points="179.38,-210 95.88,-210 95.88,-190 179.38,-190 179.38,-210"/>
<text xml:space="preserve" text-anchor="middle" x="137.62" y="-196.5" font-family="Helvetica,sans-Serif" font-size="10.00">core_task_start</text>
</a>
</g>
</g>
<!-- Node1&#45;&gt;Node7 -->
<g id="edge6_Node000001_Node000007" class="edge">
<title>Node1&#45;&gt;Node7</title>
<g id="a_edge6_Node000001_Node000007"><a xlink:title=" ">
<path fill="none" stroke="#63b8ff" d="M58.29,-213.96C66.36,-212.52 75.42,-210.91 84.43,-209.3"/>
<polygon fill="#63b8ff" stroke="#63b8ff" points="85.03,-212.75 94.26,-207.55 83.8,-205.86 85.03,-212.75"/>
</a>
</g>
</g>
<!-- Node32 -->
<g id="Node000032" class="node">
<title>Node32</title>
<g id="a_Node000032"><a xlink:href="web__server_8c.html#a440992a6db6af61fb71e65ddf68e71b0" target="_top" xlink:title=" ">
<polygon fill="white" stroke="#666666" points="180.5,-134 94.75,-134 94.75,-114 180.5,-114 180.5,-134"/>
<text xml:space="preserve" text-anchor="middle" x="137.62" y="-120.5" font-family="Helvetica,sans-Serif" font-size="10.00">start_webserver</text>
</a>
</g>
</g>
<!-- Node1&#45;&gt;Node32 -->
<g id="edge8_Node000001_Node000032" class="edge">
<title>Node1&#45;&gt;Node32</title>
<g id="a_edge8_Node000001_Node000032"><a xlink:title=" ">
<path fill="none" stroke="#63b8ff" d="M41.41,-208.83C59.35,-192.85 94.4,-161.62 116.61,-141.84"/>
<polygon fill="#63b8ff" stroke="#63b8ff" points="118.7,-144.65 123.84,-135.39 114.05,-139.43 118.7,-144.65"/>
</a>
</g>
</g>
<!-- Node41 -->
<g id="Node000041" class="node">
<title>Node41</title>
<g id="a_Node000041"><a xlink:href="wifi__manager_8c.html#a8306b05f081ffbe1d80125e2d4503267" target="_top" xlink:title=" ">
<polygon fill="white" stroke="#666666" points="171.5,-58 103.75,-58 103.75,-38 171.5,-38 171.5,-58"/>
<text xml:space="preserve" text-anchor="middle" x="137.62" y="-44.5" font-family="Helvetica,sans-Serif" font-size="10.00">wifi_init_sta</text>
</a>
</g>
</g>
<!-- Node1&#45;&gt;Node41 -->
<g id="edge13_Node000001_Node000041" class="edge">
<title>Node1&#45;&gt;Node41</title>
<g id="a_edge13_Node000001_Node000041"><a xlink:title=" ">
<path fill="none" stroke="#63b8ff" d="M35.22,-208.67C45.61,-188.35 69.99,-141.91 94,-105 102.46,-91.99 112.88,-78.03 121.29,-67.19"/>
<polygon fill="#63b8ff" stroke="#63b8ff" points="123.98,-69.43 127.41,-59.4 118.48,-65.1 123.98,-69.43"/>
</a>
</g>
</g>
<!-- Node5 -->
<g id="Node000005" class="node">
<title>Node5</title>
<g id="a_Node000005"><a xlink:href="config__manager_8c.html#ac1c75e84d0bb529b2b639162d15d2fc5" target="_top" xlink:title=" ">
<polygon fill="white" stroke="#666666" points="300.38,-286 234.88,-286 234.88,-266 300.38,-266 300.38,-286"/>
<text xml:space="preserve" text-anchor="middle" x="267.62" y="-272.5" font-family="Helvetica,sans-Serif" font-size="10.00">config_load</text>
</a>
</g>
</g>
<!-- Node4&#45;&gt;Node5 -->
<g id="edge4_Node000004_Node000005" class="edge">
<title>Node4&#45;&gt;Node5</title>
<g id="a_edge4_Node000004_Node000005"><a xlink:title=" ">
<path fill="none" stroke="#63b8ff" d="M167.99,-246.72C184.49,-251.62 205.39,-257.82 223.7,-263.26"/>
<polygon fill="#63b8ff" stroke="#63b8ff" points="222.67,-266.6 233.25,-266.09 224.66,-259.89 222.67,-266.6"/>
</a>
</g>
</g>
<!-- Node6 -->
<g id="Node000006" class="node">
<title>Node6</title>
<g id="a_Node000006"><a xlink:href="config__manager_8c.html#a8e32e17f70dc10f7647958adbb250739" target="_top" xlink:title=" ">
<polygon fill="white" stroke="#666666" points="318,-248 217.25,-248 217.25,-228 318,-228 318,-248"/>
<text xml:space="preserve" text-anchor="middle" x="267.62" y="-234.5" font-family="Helvetica,sans-Serif" font-size="10.00">config_set_defaults</text>
</a>
</g>
</g>
<!-- Node4&#45;&gt;Node6 -->
<g id="edge5_Node000004_Node000006" class="edge">
<title>Node4&#45;&gt;Node6</title>
<g id="a_edge5_Node000004_Node000006"><a xlink:title=" ">
<path fill="none" stroke="#63b8ff" d="M167.99,-238C179.18,-238 192.39,-238 205.44,-238"/>
<polygon fill="#63b8ff" stroke="#63b8ff" points="205.31,-241.5 215.31,-238 205.31,-234.5 205.31,-241.5"/>
</a>
</g>
</g>
<!-- Node8 -->
<g id="Node000008" class="node">
<title>Node8</title>
<g id="a_Node000008"><a xlink:href="core__task_8c.html#a7c37479bac98972034be8e97b38f1f47" target="_top" xlink:title=" ">
<polygon fill="#fff0f0" stroke="red" points="297,-210 238.25,-210 238.25,-190 297,-190 297,-210"/>
<text xml:space="preserve" text-anchor="middle" x="267.62" y="-196.5" font-family="Helvetica,sans-Serif" font-size="10.00">core_task</text>
</a>
</g>
</g>
<!-- Node7&#45;&gt;Node8 -->
<g id="edge7_Node000007_Node000008" class="edge">
<title>Node7&#45;&gt;Node8</title>
<g id="a_edge7_Node000007_Node000008"><a xlink:title=" ">
<path fill="none" stroke="#63b8ff" d="M179.83,-200C194.82,-200 211.74,-200 226.62,-200"/>
<polygon fill="#63b8ff" stroke="#63b8ff" points="226.54,-203.5 236.54,-200 226.54,-196.5 226.54,-203.5"/>
</a>
</g>
</g>
<!-- Node33 -->
<g id="Node000033" class="node">
<title>Node33</title>
<g id="a_Node000033"><a xlink:href="web__server_8c.html#afcbb48d855a9694e7f2675ec54c91a95" target="_top" xlink:title=" ">
<polygon fill="#fff0f0" stroke="red" points="300.75,-172 234.5,-172 234.5,-152 300.75,-152 300.75,-172"/>
<text xml:space="preserve" text-anchor="middle" x="267.62" y="-158.5" font-family="Helvetica,sans-Serif" font-size="10.00">get_handler</text>
</a>
</g>
</g>
<!-- Node32&#45;&gt;Node33 -->
<g id="edge9_Node000032_Node000033" class="edge">
<title>Node32&#45;&gt;Node33</title>
<g id="a_edge9_Node000032_Node000033"><a xlink:title=" ">
<path fill="none" stroke="#63b8ff" d="M173.94,-134.48C189.21,-139.02 207.23,-144.37 223.3,-149.14"/>
<polygon fill="#63b8ff" stroke="#63b8ff" points="222.02,-152.41 232.61,-151.9 224.02,-145.7 222.02,-152.41"/>
</a>
</g>
</g>
<!-- Node36 -->
<g id="Node000036" class="node">
<title>Node36</title>
<g id="a_Node000036"><a xlink:href="web__server_8c.html#a3c6ec47307ccc27b733e8f8393c9e677" target="_top" xlink:title=" ">
<polygon fill="#fff0f0" stroke="red" points="304.5,-134 230.75,-134 230.75,-114 304.5,-114 304.5,-134"/>
<text xml:space="preserve" text-anchor="middle" x="267.62" y="-120.5" font-family="Helvetica,sans-Serif" font-size="10.00">save_handler</text>
</a>
</g>
</g>
<!-- Node32&#45;&gt;Node36 -->
<g id="edge10_Node000032_Node000036" class="edge">
<title>Node32&#45;&gt;Node36</title>
<g id="a_edge10_Node000032_Node000036"><a xlink:title=" ">
<path fill="none" stroke="#63b8ff" d="M180.89,-124C193.16,-124 206.63,-124 219.19,-124"/>
<polygon fill="#63b8ff" stroke="#63b8ff" points="218.89,-127.5 228.89,-124 218.89,-120.5 218.89,-127.5"/>
</a>
</g>
</g>
<!-- Node39 -->
<g id="Node000039" class="node">
<title>Node39</title>
<g id="a_Node000039"><a xlink:href="web__server_8c.html#adc7b4f6e2978a7866fa572b720f94d61" target="_top" xlink:title=" ">
<polygon fill="#fff0f0" stroke="red" points="307.5,-96 227.75,-96 227.75,-76 307.5,-76 307.5,-96"/>
<text xml:space="preserve" text-anchor="middle" x="267.62" y="-82.5" font-family="Helvetica,sans-Serif" font-size="10.00">status_handler</text>
</a>
</g>
</g>
<!-- Node32&#45;&gt;Node39 -->
<g id="edge11_Node000032_Node000039" class="edge">
<title>Node32&#45;&gt;Node39</title>
<g id="a_edge11_Node000032_Node000039"><a xlink:title=" ">
<path fill="none" stroke="#63b8ff" d="M173.94,-113.52C188.35,-109.24 205.21,-104.23 220.56,-99.67"/>
<polygon fill="#63b8ff" stroke="#63b8ff" points="221.38,-103.08 229.97,-96.88 219.39,-96.37 221.38,-103.08"/>
</a>
</g>
</g>
<!-- Node40 -->
<g id="Node000040" class="node">
<title>Node40</title>
<g id="a_Node000040"><a xlink:href="web__server_8c.html#a8c9c0e181cc00b9e84ab2af1e55a2723" target="_top" xlink:title=" ">
<polygon fill="#fff0f0" stroke="red" points="303.38,-58 231.88,-58 231.88,-38 303.38,-38 303.38,-58"/>
<text xml:space="preserve" text-anchor="middle" x="267.62" y="-44.5" font-family="Helvetica,sans-Serif" font-size="10.00">stop_handler</text>
</a>
</g>
</g>
<!-- Node32&#45;&gt;Node40 -->
<g id="edge12_Node000032_Node000040" class="edge">
<title>Node32&#45;&gt;Node40</title>
<g id="a_edge12_Node000032_Node000040"><a xlink:title=" ">
<path fill="none" stroke="#63b8ff" d="M150.75,-113.65C165.65,-101.32 192.06,-80.67 217.25,-67 219.88,-65.57 222.65,-64.2 225.47,-62.89"/>
<polygon fill="#63b8ff" stroke="#63b8ff" points="226.59,-66.22 234.39,-59.05 223.82,-59.79 226.59,-66.22"/>
</a>
</g>
</g>
<!-- Node42 -->
<g id="Node000042" class="node">
<title>Node42</title>
<g id="a_Node000042"><a xlink:href="wifi__manager_8c.html#ab89f8a7d7357e4fb0e466836024c7f9c" target="_top" xlink:title=" ">
<polygon fill="white" stroke="#666666" points="306,-20 229.25,-20 229.25,0 306,0 306,-20"/>
<text xml:space="preserve" text-anchor="middle" x="267.62" y="-6.5" font-family="Helvetica,sans-Serif" font-size="10.00">event_handler</text>
</a>
</g>
</g>
<!-- Node41&#45;&gt;Node42 -->
<g id="edge14_Node000041_Node000042" class="edge">
<title>Node41&#45;&gt;Node42</title>
<g id="a_edge14_Node000041_Node000042"><a xlink:title=" ">
<path fill="none" stroke="#63b8ff" d="M171.92,-38.12C186.85,-33.68 204.69,-28.39 220.85,-23.59"/>
<polygon fill="#63b8ff" stroke="#63b8ff" points="221.67,-27 230.26,-20.8 219.67,-20.29 221.67,-27"/>
</a>
</g>
</g>
</g>
</svg>
