<?xml version="1.0" encoding="UTF-8" standalone="no"?>
<!DOCTYPE svg PUBLIC "-//W3C//DTD SVG 1.1//EN"
 "http://www.w3.org/Graphics/SVG/1.1/DTD/svg11.dtd">
<!-- Generated by graphviz version 14.1.3 (20260303.0454)
 -->
<!-- Title: core_process_command Pages: 1 -->
<svg width="433pt" height="420pt"
 viewBox="0.00 0.00 433.00 420.00" xmlns="http://www.w3.org/2000/svg" xmlns:xlink="http://www.w3.org/1999/xlink">
<g id="graph0" class="graph" transform="scale(1 1) rotate(0) translate(4 416)">
<title>core_process_command</title>
<!-- Node1 -->
<g id="Node000001" class="node">
<title>Node1</title>
<g id="a_Node000001"><a xlink:title=" ">
<polygon fill="#999999" stroke="#666666" points="122.5,-336 0,-336 0,-316 122.5,-316 122.5,-336"/>
<text xml:space="preserve" text-anchor="middle" x="61.25" y="-322.5" font-family="Helvetica,sans-Serif" font-size="10.00">core_process_command</text>
</a>
</g>
</g>
<!-- Node2 -->
<g id="Node000002" class="node">
<title>Node2</title>
<g id="a_Node000002"><a xlink:href="app__runtime_8c.html#aa327ac7f5b88734e3f3bb64e551eba6a" target="_top" xlink:title=" ">
<polygon fill="white" stroke="#666666" points="424.5,-412 289.25,-412 289.25,-392 424.5,-392 424.5,-412"/>
<text xml:space="preserve" text-anchor="middle" x="356.88" y="-398.5" font-family="Helvetica,sans-Serif" font-size="10.00">app_runtime_set_remaining</text>
</a>
</g>
</g>
<!-- Node1&#45;&gt;Node2 -->
<g id="edge1_Node000001_Node000002" class="edge">
<title>Node1&#45;&gt;Node2</title>
<g id="a_edge1_Node000001_Node000002"><a xlink:title=" ">
<path fill="none" stroke="#63b8ff" d="M88.92,-336.47C108.07,-343.73 134.62,-353.27 158.5,-360 200.39,-371.8 248.11,-382.04 286.13,-389.45"/>
<polygon fill="#63b8ff" stroke="#63b8ff" points="285.12,-392.82 295.61,-391.28 286.45,-385.95 285.12,-392.82"/>
</a>
</g>
</g>
<!-- Node3 -->
<g id="Node000003" class="node">
<title>Node3</title>
<g id="a_Node000003"><a xlink:href="app__runtime_8c.html#a603589f7cbca8b1d24eaea5e9d467bd5" target="_top" xlink:title=" ">
<polygon fill="white" stroke="#666666" points="419.25,-374 294.5,-374 294.5,-354 419.25,-354 419.25,-374"/>
<text xml:space="preserve" text-anchor="middle" x="356.88" y="-360.5" font-family="Helvetica,sans-Serif" font-size="10.00">app_runtime_set_running</text>
</a>
</g>
</g>
<!-- Node1&#45;&gt;Node3 -->
<g id="edge2_Node000001_Node000003" class="edge">
<title>Node1&#45;&gt;Node3</title>
<g id="a_edge2_Node000001_Node000003"><a xlink:title=" ">
<path fill="none" stroke="#63b8ff" d="M122.81,-335.03C134.64,-336.73 146.95,-338.46 158.5,-340 199.59,-345.49 245.55,-351.1 282.78,-355.53"/>
<polygon fill="#63b8ff" stroke="#63b8ff" points="282.2,-358.98 292.54,-356.68 283.02,-352.03 282.2,-358.98"/>
</a>
</g>
</g>
<!-- Node4 -->
<g id="Node000004" class="node">
<title>Node4</title>
<g id="a_Node000004"><a xlink:href="app__runtime_8c.html#aecdba6ce6ebb30ec00a80031b1358ac2" target="_top" xlink:title=" ">
<polygon fill="white" stroke="#666666" points="414.38,-336 299.38,-336 299.38,-316 414.38,-316 414.38,-336"/>
<text xml:space="preserve" text-anchor="middle" x="356.88" y="-322.5" font-family="Helvetica,sans-Serif" font-size="10.00">app_runtime_set_state</text>
</a>
</g>
</g>
<!-- Node1&#45;&gt;Node4 -->
<g id="edge3_Node000001_Node000004" class="edge">
<title>Node1&#45;&gt;Node4</title>
<g id="a_edge3_Node000001_Node000004"><a xlink:title=" ">
<path fill="none" stroke="#63b8ff" d="M122.73,-326C170.7,-326 237.75,-326 287.63,-326"/>
<polygon fill="#63b8ff" stroke="#63b8ff" points="287.45,-329.5 297.45,-326 287.45,-322.5 287.45,-329.5"/>
</a>
</g>
</g>
<!-- Node5 -->
<g id="Node000005" class="node">
<title>Node5</title>
<g id="a_Node000005"><a xlink:href="core__task_8c.html#a170cdd025de66ceaf05a6ee34a4fff98" target="_top" xlink:title=" ">
<polygon fill="white" stroke="#666666" points="253.25,-232 158.5,-232 158.5,-212 253.25,-212 253.25,-232"/>
<text xml:space="preserve" text-anchor="middle" x="205.88" y="-218.5" font-family="Helvetica,sans-Serif" font-size="10.00">core_apply_config</text>
</a>
</g>
</g>
<!-- Node1&#45;&gt;Node5 -->
<g id="edge4_Node000001_Node000005" class="edge">
<title>Node1&#45;&gt;Node5</title>
<g id="a_edge4_Node000001_Node000005"><a xlink:title=" ">
<path fill="none" stroke="#63b8ff" d="M76.45,-315.65C101.01,-297.74 151.66,-260.81 181.49,-239.05"/>
<polygon fill="#63b8ff" stroke="#63b8ff" points="183.49,-241.92 189.51,-233.2 179.37,-236.27 183.49,-241.92"/>
</a>
</g>
</g>
<!-- Node12 -->
<g id="Node000012" class="node">
<title>Node12</title>
<g id="a_Node000012"><a xlink:href="led__control_8c.html#a6d3dd9ccda50603d89dd9dcd78373491" target="_top" xlink:title=" ">
<polygon fill="white" stroke="#666666" points="379.12,-20 334.62,-20 334.62,0 379.12,0 379.12,-20"/>
<text xml:space="preserve" text-anchor="middle" x="356.88" y="-6.5" font-family="Helvetica,sans-Serif" font-size="10.00">led_off</text>
</a>
</g>
</g>
<!-- Node1&#45;&gt;Node12 -->
<g id="edge16_Node000001_Node000012" class="edge">
<title>Node1&#45;&gt;Node12</title>
<g id="a_edge16_Node000001_Node000012"><a xlink:title=" ">
<path fill="none" stroke="#63b8ff" d="M67.03,-315.68C87.29,-273.16 170.45,-109.93 289.25,-29 299.31,-22.14 311.84,-17.74 323.31,-14.92"/>
<polygon fill="#63b8ff" stroke="#63b8ff" points="323.75,-18.4 332.81,-12.91 322.3,-11.55 323.75,-18.4"/>
</a>
</g>
</g>
<!-- Node5&#45;&gt;Node2 -->
<g id="edge6_Node000005_Node000002" class="edge">
<title>Node5&#45;&gt;Node2</title>
<g id="a_edge6_Node000005_Node000002"><a xlink:title=" ">
<path fill="none" stroke="#63b8ff" d="M209.16,-232.49C215.95,-261.17 238.79,-341.54 289.25,-383 290.56,-384.07 291.92,-385.09 293.33,-386.04"/>
<polygon fill="#63b8ff" stroke="#63b8ff" points="291.46,-389.01 301.9,-390.82 294.87,-382.89 291.46,-389.01"/>
</a>
</g>
</g>
<!-- Node5&#45;&gt;Node3 -->
<g id="edge7_Node000005_Node000003" class="edge">
<title>Node5&#45;&gt;Node3</title>
<g id="a_edge7_Node000005_Node000003"><a xlink:title=" ">
<path fill="none" stroke="#63b8ff" d="M210.86,-232.38C220.52,-256.11 247.49,-314.6 289.25,-345 291.04,-346.3 292.91,-347.51 294.85,-348.64"/>
<polygon fill="#63b8ff" stroke="#63b8ff" points="293.11,-351.69 303.63,-352.96 296.2,-345.4 293.11,-351.69"/>
</a>
</g>
</g>
<!-- Node5&#45;&gt;Node4 -->
<g id="edge8_Node000005_Node000004" class="edge">
<title>Node5&#45;&gt;Node4</title>
<g id="a_edge8_Node000005_Node000004"><a xlink:title=" ">
<path fill="none" stroke="#63b8ff" d="M214,-232.32C226.91,-250.23 255.93,-287.05 289.25,-307 291.73,-308.49 294.34,-309.86 297.02,-311.13"/>
<polygon fill="#63b8ff" stroke="#63b8ff" points="295.68,-314.36 306.25,-314.96 298.36,-307.9 295.68,-314.36"/>
</a>
</g>
</g>
<!-- Node6 -->
<g id="Node000006" class="node">
<title>Node6</title>
<g id="a_Node000006"><a xlink:href="app__runtime_8c.html#af78e6f6d6cbd83d559be959fbd1ba18b" target="_top" xlink:title=" ">
<polygon fill="white" stroke="#666666" points="416.25,-96 297.5,-96 297.5,-76 416.25,-76 416.25,-96"/>
<text xml:space="preserve" text-anchor="middle" x="356.88" y="-82.5" font-family="Helvetica,sans-Serif" font-size="10.00">app_runtime_is_running</text>
</a>
</g>
</g>
<!-- Node5&#45;&gt;Node6 -->
<g id="edge5_Node000005_Node000006" class="edge">
<title>Node5&#45;&gt;Node6</title>
<g id="a_edge5_Node000005_Node000006"><a xlink:title=" ">
<path fill="none" stroke="#63b8ff" d="M211.16,-211.78C221.25,-189 248.74,-133.77 289.25,-105 291.05,-103.72 292.94,-102.53 294.89,-101.41"/>
<polygon fill="#63b8ff" stroke="#63b8ff" points="296.23,-104.65 303.7,-97.14 293.18,-98.35 296.23,-104.65"/>
</a>
</g>
</g>
<!-- Node7 -->
<g id="Node000007" class="node">
<title>Node7</title>
<g id="a_Node000007"><a xlink:href="config__manager_8c.html#ae6fa077d07080b40fe332fee8cae56a3" target="_top" xlink:title=" ">
<polygon fill="white" stroke="#666666" points="409.5,-58 304.25,-58 304.25,-38 409.5,-38 409.5,-58"/>
<text xml:space="preserve" text-anchor="middle" x="356.88" y="-44.5" font-family="Helvetica,sans-Serif" font-size="10.00">config_get_led_color</text>
</a>
</g>
</g>
<!-- Node5&#45;&gt;Node7 -->
<g id="edge9_Node000005_Node000007" class="edge">
<title>Node5&#45;&gt;Node7</title>
<g id="a_edge9_Node000005_Node000007"><a xlink:title=" ">
<path fill="none" stroke="#63b8ff" d="M209.28,-211.9C216.39,-184.27 239.97,-106.86 289.25,-67 290.76,-65.78 292.35,-64.63 293.99,-63.56"/>
<polygon fill="#63b8ff" stroke="#63b8ff" points="295.47,-66.74 302.62,-58.92 292.15,-60.58 295.47,-66.74"/>
</a>
</g>
</g>
<!-- Node8 -->
<g id="Node000008" class="node">
<title>Node8</title>
<g id="a_Node000008"><a xlink:href="config__manager_8c.html#a1aa68ef65d0b2ec8188f45370e500897" target="_top" xlink:title=" ">
<polygon fill="white" stroke="#666666" points="391.12,-298 322.62,-298 322.62,-278 391.12,-278 391.12,-298"/>
<text xml:space="preserve" text-anchor="middle" x="356.88" y="-284.5" font-family="Helvetica,sans-Serif" font-size="10.00">config_save</text>
</a>
</g>
</g>
<!-- Node5&#45;&gt;Node8 -->
<g id="edge10_Node000005_Node000008" class="edge">
<title>Node5&#45;&gt;Node8</title>
<g id="a_edge10_Node000005_Node000008"><a xlink:title=" ">
<path fill="none" stroke="#63b8ff" d="M222.39,-232.37C238.53,-242.78 264.81,-258.72 289.25,-269 296.33,-271.98 304.02,-274.65 311.57,-276.99"/>
<polygon fill="#63b8ff" stroke="#63b8ff" points="310.43,-280.3 321.01,-279.74 312.39,-273.58 310.43,-280.3"/>
</a>
</g>
</g>
<!-- Node9 -->
<g id="Node000009" class="node">
<title>Node9</title>
<g id="a_Node000009"><a xlink:href="config__manager_8c.html#a164282a5a4e6a9cea912072122d70a90" target="_top" xlink:title=" ">
<polygon fill="white" stroke="#666666" points="409.12,-260 304.62,-260 304.62,-228 409.12,-228 409.12,-260"/>
<text xml:space="preserve" text-anchor="start" x="312.62" y="-246.5" font-family="Helvetica,sans-Serif" font-size="10.00">config_set_led_blink</text>
<text xml:space="preserve" text-anchor="middle" x="356.88" y="-234.5" font-family="Helvetica,sans-Serif" font-size="10.00">_quantity</text>
</a>
</g>
</g>
<!-- Node5&#45;&gt;Node9 -->
<g id="edge11_Node000005_Node000009" class="edge">
<title>Node5&#45;&gt;Node9</title>
<g id="a_edge11_Node000005_Node000009"><a xlink:title=" ">
<path fill="none" stroke="#63b8ff" d="M253.61,-228.9C266.21,-230.76 280.05,-232.8 293.36,-234.77"/>
<polygon fill="#63b8ff" stroke="#63b8ff" points="292.49,-238.18 302.89,-236.18 293.51,-231.25 292.49,-238.18"/>
</a>
</g>
</g>
<!-- Node10 -->
<g id="Node000010" class="node">
<title>Node10</title>
<g id="a_Node000010"><a xlink:href="config__manager_8c.html#a35865772366b59e97683e9fe918d837d" target="_top" xlink:title=" ">
<polygon fill="white" stroke="#666666" points="421.12,-210 292.62,-210 292.62,-190 421.12,-190 421.12,-210"/>
<text xml:space="preserve" text-anchor="middle" x="356.88" y="-196.5" font-family="Helvetica,sans-Serif" font-size="10.00">config_set_led_blink_time</text>
</a>
</g>
</g>
<!-- Node5&#45;&gt;Node10 -->
<g id="edge12_Node000005_Node000010" class="edge">
<title>Node5&#45;&gt;Node10</title>
<g id="a_edge12_Node000005_Node000010"><a xlink:title=" ">
<path fill="none" stroke="#63b8ff" d="M253.61,-215.1C262.35,-213.81 271.68,-212.43 281.02,-211.05"/>
<polygon fill="#63b8ff" stroke="#63b8ff" points="281.5,-214.52 290.88,-209.6 280.47,-207.6 281.5,-214.52"/>
</a>
</g>
</g>
<!-- Node11 -->
<g id="Node000011" class="node">
<title>Node11</title>
<g id="a_Node000011"><a xlink:href="config__manager_8c.html#a7fea4d3abdfbd20bc0ac702240d169d6" target="_top" xlink:title=" ">
<polygon fill="white" stroke="#666666" points="409.5,-172 304.25,-172 304.25,-152 409.5,-152 409.5,-172"/>
<text xml:space="preserve" text-anchor="middle" x="356.88" y="-158.5" font-family="Helvetica,sans-Serif" font-size="10.00">config_set_led_color</text>
</a>
</g>
</g>
<!-- Node5&#45;&gt;Node11 -->
<g id="edge13_Node000005_Node000011" class="edge">
<title>Node5&#45;&gt;Node11</title>
<g id="a_edge13_Node000005_Node000011"><a xlink:title=" ">
<path fill="none" stroke="#63b8ff" d="M225.4,-211.54C241.81,-202.58 266.61,-189.78 289.25,-181 293.92,-179.19 298.83,-177.47 303.78,-175.85"/>
<polygon fill="#63b8ff" stroke="#63b8ff" points="304.65,-179.24 313.16,-172.93 302.58,-172.56 304.65,-179.24"/>
</a>
</g>
</g>
<!-- Node5&#45;&gt;Node12 -->
<g id="edge14_Node000005_Node000012" class="edge">
<title>Node5&#45;&gt;Node12</title>
<g id="a_edge14_Node000005_Node000012"><a xlink:title=" ">
<path fill="none" stroke="#63b8ff" d="M210.7,-211.64C224.87,-173.45 274.32,-42.16 289.25,-29 298.69,-20.68 311.53,-15.99 323.42,-13.35"/>
<polygon fill="#63b8ff" stroke="#63b8ff" points="323.67,-16.86 332.9,-11.66 322.45,-9.97 323.67,-16.86"/>
</a>
</g>
</g>
<!-- Node13 -->
<g id="Node000013" class="node">
<title>Node13</title>
<g id="a_Node000013"><a xlink:href="led__control_8c.html#a4896d7fb7225d6da12b8ba2144c90740" target="_top" xlink:title=" ">
<polygon fill="white" stroke="#666666" points="393.75,-134 320,-134 320,-114 393.75,-114 393.75,-134"/>
<text xml:space="preserve" text-anchor="middle" x="356.88" y="-120.5" font-family="Helvetica,sans-Serif" font-size="10.00">led_set_color</text>
</a>
</g>
</g>
<!-- Node5&#45;&gt;Node13 -->
<g id="edge15_Node000005_Node000013" class="edge">
<title>Node5&#45;&gt;Node13</title>
<g id="a_edge15_Node000005_Node000013"><a xlink:title=" ">
<path fill="none" stroke="#63b8ff" d="M214.81,-211.63C228.28,-194.74 257.29,-161.35 289.25,-143 295.34,-139.5 302.12,-136.61 308.96,-134.23"/>
<polygon fill="#63b8ff" stroke="#63b8ff" points="309.71,-137.67 318.22,-131.35 307.63,-130.98 309.71,-137.67"/>
</a>
</g>
</g>
</g>
</svg>
