<?xml version="1.0" encoding="UTF-8" standalone="no"?>
<!DOCTYPE svg PUBLIC "-//W3C//DTD SVG 1.1//EN"
 "http://www.w3.org/Graphics/SVG/1.1/DTD/svg11.dtd">
<!-- Generated by graphviz version 14.1.3 (20260303.0454)
 -->
<!-- Title: main/led_control.c Pages: 1 -->
<svg width="136pt" height="140pt"
 viewBox="0.00 0.00 136.00 140.00" xmlns="http://www.w3.org/2000/svg" xmlns:xlink="http://www.w3.org/1999/xlink">
<g id="graph0" class="graph" transform="scale(1 1) rotate(0) translate(4 136)">
<title>main/led_control.c</title>
<!-- Node1 -->
<g id="Node000001" class="node">
<title>Node1</title>
<g id="a_Node000001"><a xlink:title=" ">
<polygon fill="#999999" stroke="#666666" points="107.88,-132 12.38,-132 12.38,-112 107.88,-112 107.88,-132"/>
<text xml:space="preserve" text-anchor="middle" x="60.12" y="-118.5" font-family="Helvetica,sans-Serif" font-size="10.00">main/led_control.c</text>
</a>
</g>
</g>
<!-- Node2 -->
<g id="Node000002" class="node">
<title>Node2</title>
<g id="a_Node000002"><a xlink:href="led__control_8h.html" target="_top" xlink:title=" ">
<polygon fill="white" stroke="#666666" points="95.88,-76 24.38,-76 24.38,-56 95.88,-56 95.88,-76"/>
<text xml:space="preserve" text-anchor="middle" x="60.12" y="-62.5" font-family="Helvetica,sans-Serif" font-size="10.00">led_control.h</text>
</a>
</g>
</g>
<!-- Node1&#45;&gt;Node2 -->
<g id="edge1_Node000001_Node000002" class="edge">
<title>Node1&#45;&gt;Node2</title>
<g id="a_edge1_Node000001_Node000002"><a xlink:title=" ">
<path fill="none" stroke="#63b8ff" d="M60.12,-111.59C60.12,-105.01 60.12,-95.96 60.12,-87.73"/>
<polygon fill="#63b8ff" stroke="#63b8ff" points="63.63,-87.81 60.13,-77.81 56.63,-87.81 63.63,-87.81"/>
</a>
</g>
</g>
<!-- Node3 -->
<g id="Node000003" class="node">
<title>Node3</title>
<g id="a_Node000003"><a xlink:title=" ">
<polygon fill="#e0e0e0" stroke="#999999" points="48.25,-20 0,-20 0,0 48.25,0 48.25,-20"/>
<text xml:space="preserve" text-anchor="middle" x="24.12" y="-6.5" font-family="Helvetica,sans-Serif" font-size="10.00">stdint.h</text>
</a>
</g>
</g>
<!-- Node2&#45;&gt;Node3 -->
<g id="edge2_Node000002_Node000003" class="edge">
<title>Node2&#45;&gt;Node3</title>
<g id="a_edge2_Node000002_Node000003"><a xlink:title=" ">
<path fill="none" stroke="#63b8ff" d="M53.85,-55.59C49.11,-48.47 42.43,-38.45 36.6,-29.72"/>
<polygon fill="#63b8ff" stroke="#63b8ff" points="39.62,-27.94 31.16,-21.56 33.8,-31.82 39.62,-27.94"/>
</a>
</g>
</g>
<!-- Node4 -->
<g id="Node000004" class="node">
<title>Node4</title>
<g id="a_Node000004"><a xlink:title=" ">
<polygon fill="#e0e0e0" stroke="#999999" points="127.62,-20 66.62,-20 66.62,0 127.62,0 127.62,-20"/>
<text xml:space="preserve" text-anchor="middle" x="97.12" y="-6.5" font-family="Helvetica,sans-Serif" font-size="10.00">led_strip.h</text>
</a>
</g>
</g>
<!-- Node2&#45;&gt;Node4 -->
<g id="edge3_Node000002_Node000004" class="edge">
<title>Node2&#45;&gt;Node4</title>
<g id="a_edge3_Node000002_Node000004"><a xlink:title=" ">
<path fill="none" stroke="#63b8ff" d="M66.57,-55.59C71.45,-48.47 78.32,-38.45 84.3,-29.72"/>
<polygon fill="#63b8ff" stroke="#63b8ff" points="87.13,-31.77 89.9,-21.55 81.36,-27.82 87.13,-31.77"/>
</a>
</g>
</g>
</g>
</svg>
