<?xml version="1.0" encoding="UTF-8" standalone="no"?>
<!DOCTYPE svg PUBLIC "-//W3C//DTD SVG 1.1//EN"
 "http://www.w3.org/Graphics/SVG/1.1/DTD/svg11.dtd">
<!-- Generated by graphviz version 14.1.3 (20260303.0454)
 -->
<!-- Title: start_webserver Pages: 1 -->
<!--zoomable 456 -->

<svg id="main" version="1.1" xmlns="http://www.w3.org/2000/svg" xmlns:xlink="http://www.w3.org/1999/xlink" xml:space="preserve" onload="init(evt)">

<style type="text/css"><![CDATA[
.node, .edge {opacity: 0.7;}
.node.selected, .edge.selected {opacity: 1;}
.edge:hover path { stroke: red; }
.edge:hover polygon { stroke: red; fill: red; }
]]></style>

<defs>
  <circle id="rim" cx="0" cy="0" r="7"/>
  <circle id="rim2" cx="0" cy="0" r="3.5"/>
  <g id="zoomPlus">
    <use xlink:href="#rim" fill="#404040"><set attributeName="fill" to="#808080" begin="zoomplus.mouseover" end="zoomplus.mouseout"/></use>
    <path d="M-4,0h8M0,-4v8" fill="none" stroke="white" stroke-width="1.5" pointer-events="none"/>
  </g>
  <g id="zoomMin">
    <use xlink:href="#rim" fill="#404040"><set attributeName="fill" to="#808080" begin="zoomminus.mouseover" end="zoomminus.mouseout"/></use>
    <path d="M-4,0h8" fill="none" stroke="white" stroke-width="1.5" pointer-events="none"/>
  </g>
  <g id="arrowUp" transform="translate(30 24)">
    <use xlink:href="#rim"/>
    <path pointer-events="none" fill="none" stroke="white" stroke-width="1.5" d="M0,-3.0v7 M-2.5,-0.5L0,-3.0L2.5,-0.5"/>
  </g>
  <g id="arrowRight" transform="rotate(90) translate(36 -43)">
    <use xlink:href="#rim"/>
    <path pointer-events="none" fill="none" stroke="white" stroke-width="1.5" d="M0,-3.0v7 M-2.5,-0.5L0,-3.0L2.5,-0.5"/>
  </g>
  <g id="arrowDown" transform="rotate(180) translate(-30 -48)">
    <use xlink:href="#rim"/>
    <path pointer-events="none" fill="none" stroke="white" stroke-width="1.5" d="M0,-3.0v7 M-2.5,-0.5L0,-3.0L2.5,-0.5"/>
  </g>
  <g id="arrowLeft" transform="rotate(270) translate(-36 17)">
    <use xlink:href="#rim"/>
    <path pointer-events="none" fill="none" stroke="white" stroke-width="1.5" d="M0,-3.0v7 M-2.5,-0.5L0,-3.0L2.5,-0.5"/>
  </g>
  <g id="resetDef">
    <use xlink:href="#rim2" fill="#404040"><set attributeName="fill" to="#808080" begin="reset.mouseover" end="reset.mouseout"/></use>
  </g>
</defs>
<script type="application/ecmascript">
var viewWidth = 374;
var viewHeight = 456;
var sectionId = 'dynsection-1';
</script>
<script type="application/ecmascript" xlink:href="svg.min.js"/>
<svg id="graph" class="graph">
<g id="viewport">
<title>start_webserver</title>
<!-- Node1 -->
<g id="Node000001" class="node">
<title>Node1</title>
<g id="a_Node000001"><a xlink:title=" ">
<polygon fill="#999999" stroke="#666666" points="85.75,-271 0,-271 0,-251 85.75,-251 85.75,-271"/>
<text xml:space="preserve" text-anchor="middle" x="42.88" y="-257.5" font-family="Helvetica,sans-Serif" font-size="10.00">start_webserver</text>
</a>
</g>
</g>
<!-- Node2 -->
<g id="Node000002" class="node">
<title>Node2</title>
<g id="a_Node000002"><a xlink:href="web__server_8c.html#afcbb48d855a9694e7f2675ec54c91a95" target="_top" xlink:title=" ">
<polygon fill="white" stroke="#666666" points="194.75,-312 128.5,-312 128.5,-292 194.75,-292 194.75,-312"/>
<text xml:space="preserve" text-anchor="middle" x="161.62" y="-298.5" font-family="Helvetica,sans-Serif" font-size="10.00">get_handler</text>
</a>
</g>
</g>
<!-- Node1&#45;&gt;Node2 -->
<g id="edge1_Node000001_Node000002" class="edge">
<title>Node1&#45;&gt;Node2</title>
<g id="a_edge1_Node000001_Node000002"><a xlink:title=" ">
<path fill="none" stroke="#63b8ff" d="M73.64,-271.45C87.77,-276.42 104.88,-282.42 120.17,-287.79"/>
<polygon fill="#63b8ff" stroke="#63b8ff" points="118.89,-291.05 129.49,-291.07 121.21,-284.45 118.89,-291.05"/>
</a>
</g>
</g>
<!-- Node10 -->
<g id="Node000010" class="node">
<title>Node10</title>
<g id="a_Node000010"><a xlink:href="web__server_8c.html#a3c6ec47307ccc27b733e8f8393c9e677" target="_top" xlink:title=" ">
<polygon fill="white" stroke="#666666" points="198.5,-208 124.75,-208 124.75,-188 198.5,-188 198.5,-208"/>
<text xml:space="preserve" text-anchor="middle" x="161.62" y="-194.5" font-family="Helvetica,sans-Serif" font-size="10.00">save_handler</text>
</a>
</g>
</g>
<!-- Node1&#45;&gt;Node10 -->
<g id="edge9_Node000001_Node000010" class="edge">
<title>Node1&#45;&gt;Node10</title>
<g id="a_edge9_Node000001_Node000010"><a xlink:title=" ">
<path fill="none" stroke="#63b8ff" d="M63.15,-250.6C81.74,-240.57 110.12,-225.25 131.47,-213.73"/>
<polygon fill="#63b8ff" stroke="#63b8ff" points="132.85,-216.97 139.99,-209.14 129.52,-210.81 132.85,-216.97"/>
</a>
</g>
</g>
<!-- Node14 -->
<g id="Node000014" class="node">
<title>Node14</title>
<g id="a_Node000014"><a xlink:href="web__server_8c.html#adc7b4f6e2978a7866fa572b720f94d61" target="_top" xlink:title=" ">
<polygon fill="white" stroke="#666666" points="201.5,-391 121.75,-391 121.75,-371 201.5,-371 201.5,-391"/>
<text xml:space="preserve" text-anchor="middle" x="161.62" y="-377.5" font-family="Helvetica,sans-Serif" font-size="10.00">status_handler</text>
</a>
</g>
</g>
<!-- Node1&#45;&gt;Node14 -->
<g id="edge16_Node000001_Node000014" class="edge">
<title>Node1&#45;&gt;Node14</title>
<g id="a_edge16_Node000001_Node000014"><a xlink:title=" ">
<path fill="none" stroke="#63b8ff" d="M53.83,-271.23C73.56,-291.51 117.87,-337.06 142.77,-362.65"/>
<polygon fill="#63b8ff" stroke="#63b8ff" points="140.16,-364.98 149.64,-369.71 145.18,-360.1 140.16,-364.98"/>
</a>
</g>
</g>
<!-- Node15 -->
<g id="Node000015" class="node">
<title>Node15</title>
<g id="a_Node000015"><a xlink:href="web__server_8c.html#a8c9c0e181cc00b9e84ab2af1e55a2723" target="_top" xlink:title=" ">
<polygon fill="white" stroke="#666666" points="197.38,-98 125.88,-98 125.88,-78 197.38,-78 197.38,-98"/>
<text xml:space="preserve" text-anchor="middle" x="161.62" y="-84.5" font-family="Helvetica,sans-Serif" font-size="10.00">stop_handler</text>
</a>
</g>
</g>
<!-- Node1&#45;&gt;Node15 -->
<g id="edge20_Node000001_Node000015" class="edge">
<title>Node1&#45;&gt;Node15</title>
<g id="a_edge20_Node000001_Node000015"><a xlink:title=" ">
<path fill="none" stroke="#63b8ff" d="M50.83,-250.7C69.76,-222.64 122.49,-144.51 147.34,-107.68"/>
<polygon fill="#63b8ff" stroke="#63b8ff" points="150.02,-109.97 152.71,-99.72 144.22,-106.05 150.02,-109.97"/>
</a>
</g>
</g>
<!-- Node3 -->
<g id="Node000003" class="node">
<title>Node3</title>
<g id="a_Node000003"><a xlink:href="app__runtime_8c.html#a7eb987827b90888da5e0f352eacd8436" target="_top" xlink:title=" ">
<polygon fill="white" stroke="#666666" points="358.88,-448 244.62,-448 244.62,-428 358.88,-428 358.88,-448"/>
<text xml:space="preserve" text-anchor="middle" x="301.75" y="-434.5" font-family="Helvetica,sans-Serif" font-size="10.00">app_runtime_get_copy</text>
</a>
</g>
</g>
<!-- Node2&#45;&gt;Node3 -->
<g id="edge2_Node000002_Node000003" class="edge">
<title>Node2&#45;&gt;Node3</title>
<g id="a_edge2_Node000002_Node000003"><a xlink:title=" ">
<path fill="none" stroke="#63b8ff" d="M169.26,-312.17C177.03,-324.08 190.26,-344.43 201.5,-362 217.65,-387.24 213.64,-400.88 237.5,-419 239.21,-420.3 241.01,-421.51 242.88,-422.64"/>
<polygon fill="#63b8ff" stroke="#63b8ff" points="240.82,-425.52 251.32,-426.94 243.99,-419.28 240.82,-425.52"/>
</a>
</g>
</g>
<!-- Node4 -->
<g id="Node000004" class="node">
<title>Node4</title>
<g id="a_Node000004"><a xlink:href="config__manager_8c.html#a077bae0ce61a46345258a72d83386c33" target="_top" xlink:title=" ">
<polygon fill="white" stroke="#666666" points="354,-296 249.5,-296 249.5,-264 354,-264 354,-296"/>
<text xml:space="preserve" text-anchor="start" x="257.5" y="-282.5" font-family="Helvetica,sans-Serif" font-size="10.00">config_get_led_blink</text>
<text xml:space="preserve" text-anchor="middle" x="301.75" y="-270.5" font-family="Helvetica,sans-Serif" font-size="10.00">_quantity</text>
</a>
</g>
</g>
<!-- Node2&#45;&gt;Node4 -->
<g id="edge3_Node000002_Node000004" class="edge">
<title>Node2&#45;&gt;Node4</title>
<g id="a_edge3_Node000002_Node000004"><a xlink:title=" ">
<path fill="none" stroke="#63b8ff" d="M195.01,-296.84C207.84,-294.8 223.06,-292.37 237.89,-290.01"/>
<polygon fill="#63b8ff" stroke="#63b8ff" points="238.29,-293.49 247.62,-288.46 237.19,-286.58 238.29,-293.49"/>
</a>
</g>
</g>
<!-- Node5 -->
<g id="Node000005" class="node">
<title>Node5</title>
<g id="a_Node000005"><a xlink:href="config__manager_8c.html#aef41760060ac43d43951c58f15cdda4f" target="_top" xlink:title=" ">
<polygon fill="white" stroke="#666666" points="366,-246 237.5,-246 237.5,-226 366,-226 366,-246"/>
<text xml:space="preserve" text-anchor="middle" x="301.75" y="-232.5" font-family="Helvetica,sans-Serif" font-size="10.00">config_get_led_blink_time</text>
</a>
</g>
</g>
<!-- Node2&#45;&gt;Node5 -->
<g id="edge4_Node000002_Node000005" class="edge">
<title>Node2&#45;&gt;Node5</title>
<g id="a_edge4_Node000002_Node000005"><a xlink:title=" ">
<path fill="none" stroke="#63b8ff" d="M176.61,-291.61C191.19,-281.17 215,-265.22 237.5,-255 241.27,-253.29 245.24,-251.68 249.27,-250.18"/>
<polygon fill="#63b8ff" stroke="#63b8ff" points="250.26,-253.54 258.57,-246.97 247.98,-246.93 250.26,-253.54"/>
</a>
</g>
</g>
<!-- Node6 -->
<g id="Node000006" class="node">
<title>Node6</title>
<g id="a_Node000006"><a xlink:href="config__manager_8c.html#ae6fa077d07080b40fe332fee8cae56a3" target="_top" xlink:title=" ">
<polygon fill="white" stroke="#666666" points="354.38,-208 249.12,-208 249.12,-188 354.38,-188 354.38,-208"/>
<text xml:space="preserve" text-anchor="middle" x="301.75" y="-194.5" font-family="Helvetica,sans-Serif" font-size="10.00">config_get_led_color</text>
</a>
</g>
</g>
<!-- Node2&#45;&gt;Node6 -->
<g id="edge5_Node000002_Node000006" class="edge">
<title>Node2&#45;&gt;Node6</title>
<g id="a_edge5_Node000002_Node000006"><a xlink:title=" ">
<path fill="none" stroke="#63b8ff" d="M168.9,-291.7C180.31,-273.83 206.21,-237.06 237.5,-217 239.74,-215.56 242.09,-214.23 244.52,-213"/>
<polygon fill="#63b8ff" stroke="#63b8ff" points="245.7,-216.3 253.44,-209.06 242.87,-209.9 245.7,-216.3"/>
</a>
</g>
</g>
<!-- Node7 -->
<g id="Node000007" class="node">
<title>Node7</title>
<g id="a_Node000007"><a xlink:href="web__server_8c.html#a961e678c51bf3c833ac0bfb078bfa037" target="_top" xlink:title=" ">
<polygon fill="white" stroke="#666666" points="344.25,-334 259.25,-334 259.25,-314 344.25,-314 344.25,-334"/>
<text xml:space="preserve" text-anchor="middle" x="301.75" y="-320.5" font-family="Helvetica,sans-Serif" font-size="10.00">get_color_name</text>
</a>
</g>
</g>
<!-- Node2&#45;&gt;Node7 -->
<g id="edge6_Node000002_Node000007" class="edge">
<title>Node2&#45;&gt;Node7</title>
<g id="a_edge6_Node000002_Node000007"><a xlink:title=" ">
<path fill="none" stroke="#63b8ff" d="M195.01,-307.16C210.64,-309.65 229.81,-312.7 247.51,-315.52"/>
<polygon fill="#63b8ff" stroke="#63b8ff" points="246.95,-318.98 257.38,-317.09 248.06,-312.06 246.95,-318.98"/>
</a>
</g>
</g>
<!-- Node8 -->
<g id="Node000008" class="node">
<title>Node8</title>
<g id="a_Node000008"><a xlink:href="web__server_8c.html#a812da87a98098a7a09c208194ef0255e" target="_top" xlink:title=" ">
<polygon fill="white" stroke="#666666" points="365.62,-410 237.88,-410 237.88,-390 365.62,-390 365.62,-410"/>
<text xml:space="preserve" text-anchor="middle" x="301.75" y="-396.5" font-family="Helvetica,sans-Serif" font-size="10.00">get_domain_status_name</text>
</a>
</g>
</g>
<!-- Node2&#45;&gt;Node8 -->
<g id="edge7_Node000002_Node000008" class="edge">
<title>Node2&#45;&gt;Node8</title>
<g id="a_edge7_Node000002_Node000008"><a xlink:title=" ">
<path fill="none" stroke="#63b8ff" d="M169.65,-312.36C181.61,-329.22 207.57,-362.57 237.5,-381 239.93,-382.5 242.5,-383.89 245.13,-385.17"/>
<polygon fill="#63b8ff" stroke="#63b8ff" points="243.63,-388.34 254.21,-389.03 246.37,-381.89 243.63,-388.34"/>
</a>
</g>
</g>
<!-- Node9 -->
<g id="Node000009" class="node">
<title>Node9</title>
<g id="a_Node000009"><a xlink:href="web__server_8c.html#a66f99055996398f4397398d2607b2730" target="_top" xlink:title=" ">
<polygon fill="white" stroke="#666666" points="356.25,-372 247.25,-372 247.25,-352 356.25,-352 356.25,-372"/>
<text xml:space="preserve" text-anchor="middle" x="301.75" y="-358.5" font-family="Helvetica,sans-Serif" font-size="10.00">get_last_result_name</text>
</a>
</g>
</g>
<!-- Node2&#45;&gt;Node9 -->
<g id="edge8_Node000002_Node000009" class="edge">
<title>Node2&#45;&gt;Node9</title>
<g id="a_edge8_Node000002_Node000009"><a xlink:title=" ">
<path fill="none" stroke="#63b8ff" d="M179.37,-312.5C194.22,-321.48 216.72,-334.3 237.5,-343 241.78,-344.79 246.29,-346.49 250.85,-348.09"/>
<polygon fill="#63b8ff" stroke="#63b8ff" points="249.47,-351.32 260.06,-351.13 251.66,-344.67 249.47,-351.32"/>
</a>
</g>
</g>
<!-- Node10&#45;&gt;Node4 -->
<g id="edge12_Node000010_Node000004" class="edge">
<title>Node10&#45;&gt;Node4</title>
<g id="a_edge12_Node000010_Node000004"><a xlink:title=" ">
<path fill="none" stroke="#63b8ff" d="M174.11,-208.36C188.23,-220.7 213.31,-241.36 237.5,-255 239.8,-256.3 242.18,-257.56 244.61,-258.78"/>
<polygon fill="#63b8ff" stroke="#63b8ff" points="242.88,-261.84 253.42,-262.93 245.86,-255.5 242.88,-261.84"/>
</a>
</g>
</g>
<!-- Node10&#45;&gt;Node5 -->
<g id="edge13_Node000010_Node000005" class="edge">
<title>Node10&#45;&gt;Node5</title>
<g id="a_edge13_Node000010_Node000005"><a xlink:title=" ">
<path fill="none" stroke="#63b8ff" d="M198.92,-207.98C215.2,-212.46 234.65,-217.81 252.16,-222.63"/>
<polygon fill="#63b8ff" stroke="#63b8ff" points="250.74,-225.87 261.31,-225.15 252.6,-219.12 250.74,-225.87"/>
</a>
</g>
</g>
<!-- Node10&#45;&gt;Node6 -->
<g id="edge14_Node000010_Node000006" class="edge">
<title>Node10&#45;&gt;Node6</title>
<g id="a_edge14_Node000010_Node000006"><a xlink:title=" ">
<path fill="none" stroke="#63b8ff" d="M198.92,-198C210.72,-198 224.2,-198 237.39,-198"/>
<polygon fill="#63b8ff" stroke="#63b8ff" points="237.35,-201.5 247.35,-198 237.35,-194.5 237.35,-201.5"/>
</a>
</g>
</g>
<!-- Node11 -->
<g id="Node000011" class="node">
<title>Node11</title>
<g id="a_Node000011"><a xlink:href="app__events_8c.html#af747636028131d2f9ddc8a207bde3e0e" target="_top" xlink:title=" ">
<polygon fill="white" stroke="#666666" points="352.88,-170 250.62,-170 250.62,-138 352.88,-138 352.88,-170"/>
<text xml:space="preserve" text-anchor="start" x="258.62" y="-156.5" font-family="Helvetica,sans-Serif" font-size="10.00">app_events_publish</text>
<text xml:space="preserve" text-anchor="middle" x="301.75" y="-144.5" font-family="Helvetica,sans-Serif" font-size="10.00">_config_updated</text>
</a>
</g>
</g>
<!-- Node10&#45;&gt;Node11 -->
<g id="edge10_Node000010_Node000011" class="edge">
<title>Node10&#45;&gt;Node11</title>
<g id="a_edge10_Node000010_Node000011"><a xlink:title=" ">
<path fill="none" stroke="#63b8ff" d="M195.36,-187.57C208.52,-183.38 224.14,-178.4 239.27,-173.59"/>
<polygon fill="#63b8ff" stroke="#63b8ff" points="240.25,-176.95 248.71,-170.58 238.12,-170.28 240.25,-176.95"/>
</a>
</g>
</g>
<!-- Node12 -->
<g id="Node000012" class="node">
<title>Node12</title>
<g id="a_Node000012"><a xlink:href="app__events_8c.html#acab8f4accf873a75e97137eb959269b5" target="_top" xlink:title=" ">
<polygon fill="white" stroke="#666666" points="352.88,-120 250.62,-120 250.62,-88 352.88,-88 352.88,-120"/>
<text xml:space="preserve" text-anchor="start" x="258.62" y="-106.5" font-family="Helvetica,sans-Serif" font-size="10.00">app_events_publish</text>
<text xml:space="preserve" text-anchor="middle" x="301.75" y="-94.5" font-family="Helvetica,sans-Serif" font-size="10.00">_start_requested</text>
</a>
</g>
</g>
<!-- Node10&#45;&gt;Node12 -->
<g id="edge11_Node000010_Node000012" class="edge">
<title>Node10&#45;&gt;Node12</title>
<g id="a_edge11_Node000010_Node000012"><a xlink:title=" ">
<path fill="none" stroke="#63b8ff" d="M171.38,-187.84C184.48,-173.16 210.55,-145.92 237.5,-129 239.38,-127.82 241.31,-126.68 243.3,-125.58"/>
<polygon fill="#63b8ff" stroke="#63b8ff" points="244.82,-128.74 252.16,-121.1 241.66,-122.49 244.82,-128.74"/>
</a>
</g>
</g>
<!-- Node13 -->
<g id="Node000013" class="node">
<title>Node13</title>
<g id="a_Node000013"><a xlink:href="web__server_8c.html#ae00dcea5745c2c0ad601cdfba82264b0" target="_top" xlink:title=" ">
<polygon fill="white" stroke="#666666" points="341.62,-70 261.88,-70 261.88,-50 341.62,-50 341.62,-70"/>
<text xml:space="preserve" text-anchor="middle" x="301.75" y="-56.5" font-family="Helvetica,sans-Serif" font-size="10.00">get_query_u32</text>
</a>
</g>
</g>
<!-- Node10&#45;&gt;Node13 -->
<g id="edge15_Node000010_Node000013" class="edge">
<title>Node10&#45;&gt;Node13</title>
<g id="a_edge15_Node000010_Node000013"><a xlink:title=" ">
<path fill="none" stroke="#63b8ff" d="M166.23,-187.65C174.8,-164.57 198.65,-108.56 237.5,-79 241.56,-75.91 246.12,-73.32 250.89,-71.15"/>
<polygon fill="#63b8ff" stroke="#63b8ff" points="252.05,-74.45 260.12,-67.58 249.53,-67.92 252.05,-74.45"/>
</a>
</g>
</g>
<!-- Node14&#45;&gt;Node3 -->
<g id="edge17_Node000014_Node000003" class="edge">
<title>Node14&#45;&gt;Node3</title>
<g id="a_edge17_Node000014_Node000003"><a xlink:title=" ">
<path fill="none" stroke="#63b8ff" d="M180.97,-391.47C195.87,-399.69 217.61,-411.04 237.5,-419 241.87,-420.75 246.47,-422.43 251.1,-424.01"/>
<polygon fill="#63b8ff" stroke="#63b8ff" points="249.88,-427.29 260.47,-427.05 252.04,-420.63 249.88,-427.29"/>
</a>
</g>
</g>
<!-- Node14&#45;&gt;Node8 -->
<g id="edge18_Node000014_Node000008" class="edge">
<title>Node14&#45;&gt;Node8</title>
<g id="a_edge18_Node000014_Node000008"><a xlink:title=" ">
<path fill="none" stroke="#63b8ff" d="M201.84,-386.39C209.46,-387.44 217.68,-388.57 226.01,-389.72"/>
<polygon fill="#63b8ff" stroke="#63b8ff" points="225.52,-393.18 235.9,-391.08 226.47,-386.25 225.52,-393.18"/>
</a>
</g>
</g>
<!-- Node14&#45;&gt;Node9 -->
<g id="edge19_Node000014_Node000009" class="edge">
<title>Node14&#45;&gt;Node9</title>
<g id="a_edge19_Node000014_Node000009"><a xlink:title=" ">
<path fill="none" stroke="#63b8ff" d="M201.84,-375.61C212.47,-374.14 224.28,-372.52 235.93,-370.92"/>
<polygon fill="#63b8ff" stroke="#63b8ff" points="236.07,-374.43 245.5,-369.6 235.12,-367.5 236.07,-374.43"/>
</a>
</g>
</g>
<!-- Node16 -->
<g id="Node000016" class="node">
<title>Node16</title>
<g id="a_Node000016"><a xlink:href="app__events_8c.html#a894fc411f365c2c7b7dae970065f84df" target="_top" xlink:title=" ">
<polygon fill="white" stroke="#666666" points="352.88,-32 250.62,-32 250.62,0 352.88,0 352.88,-32"/>
<text xml:space="preserve" text-anchor="start" x="258.62" y="-18.5" font-family="Helvetica,sans-Serif" font-size="10.00">app_events_publish</text>
<text xml:space="preserve" text-anchor="middle" x="301.75" y="-6.5" font-family="Helvetica,sans-Serif" font-size="10.00">_stop_requested</text>
</a>
</g>
</g>
<!-- Node15&#45;&gt;Node16 -->
<g id="edge21_Node000015_Node000016" class="edge">
<title>Node15&#45;&gt;Node16</title>
<g id="a_edge21_Node000015_Node000016"><a xlink:title=" ">
<path fill="none" stroke="#63b8ff" d="M177.35,-77.62C192.12,-67.48 215.73,-52.02 237.5,-41 240.17,-39.65 242.94,-38.32 245.75,-37.02"/>
<polygon fill="#63b8ff" stroke="#63b8ff" points="246.94,-40.32 254.67,-33.08 244.11,-33.92 246.94,-40.32"/>
</a>
</g>
</g>
</g>
</svg>

<g id="navigator" transform="translate(0 0)" fill="#404254">
  <rect fill="#f2f5e9" fill-opacity="0.5" stroke="#606060" stroke-width=".5" x="0" y="0" width="60" height="60"/>
  <use id="zoomplus" xlink:href="#zoomPlus" x="17" y="9" onmousedown="handleZoom(evt,'in')"/>
  <use id="zoomminus" xlink:href="#zoomMin" x="42" y="9" onmousedown="handleZoom(evt,'out')"/>
  <use id="reset" xlink:href="#resetDef" x="30" y="36" onmousedown="handleReset()"/>
   <use id="arrowup" xlink:href="#arrowUp" x="0" y="0" onmousedown="handlePan(0,-1)"/>
  <use id="arrowright" xlink:href="#arrowRight" x="0" y="0" onmousedown="handlePan(1,0)"/>
  <use id="arrowdown" xlink:href="#arrowDown" x="0" y="0" onmousedown="handlePan(0,1)"/>
  <use id="arrowleft" xlink:href="#arrowLeft" x="0" y="0" onmousedown="handlePan(-1,0)"/>
</g>
<svg viewBox="0 0 15 15" width="100%" height="30px" preserveAspectRatio="xMaxYMin meet">
 <g id="arrow_out" transform="scale(0.3 0.3)">
  <a xlink:href="web__server_8h_a440992a6db6af61fb71e65ddf68e71b0_cgraph_org.svg" target="_base">
   <rect id="button" ry="5" rx="5" y="6" x="6" height="38" width="38"
        fill="#f2f5e9" fill-opacity="0.5" stroke="#606060" stroke-width="1.0"/>
   <path id="arrow"
     d="M 11.500037,31.436501 C 11.940474,20.09759 22.043105,11.32322 32.158766,21.979434 L 37.068811,17.246167 C 37.068811,17.246167 37.088388,32 37.088388,32 L 22.160133,31.978069 C 22.160133,31.978069 26.997745,27.140456 26.997745,27.140456 C 18.528582,18.264221 13.291696,25.230495 11.500037,31.436501 z"
     style="fill:#404040;"/>
  </a>
 </g>
</svg>

<style type='text/css'>
<![CDATA[
[data-mouse-over-selected='false'] { opacity: 0.7; }
[data-mouse-over-selected='true']  { opacity: 1.0; }
]]>
</style>
<script type="application/ecmascript"><![CDATA[
document.addEventListener('DOMContentLoaded', (event) => {
  highlightEdges();
  highlightAdjacentNodes();
});
]]></script>
</svg>
