<?xml version="1.0" encoding="UTF-8" standalone="no"?>
<!DOCTYPE svg PUBLIC "-//W3C//DTD SVG 1.1//EN"
 "http://www.w3.org/Graphics/SVG/1.1/DTD/svg11.dtd">
<!-- Generated by graphviz version 14.1.3 (20260303.0454)
 -->
<!-- Title: get_last_result_name Pages: 1 -->
<svg width="355pt" height="66pt"
 viewBox="0.00 0.00 355.00 66.00" xmlns="http://www.w3.org/2000/svg" xmlns:xlink="http://www.w3.org/1999/xlink">

<svg id="main" version="1.1" xmlns="http://www.w3.org/2000/svg" xmlns:xlink="http://www.w3.org/1999/xlink" xml:space="preserve">

<style type="text/css"><![CDATA[
.node, .edge {opacity: 0.7;}
.node.selected, .edge.selected {opacity: 1;}
.edge:hover path { stroke: red; }
.edge:hover polygon { stroke: red; fill: red; }
]]></style>
<script type="application/ecmascript" xlink:href="svg.min.js"/>
<svg id="graph" class="graph">
<g id="graph0" class="graph" transform="scale(1 1) rotate(0) translate(4 62)">
<title>get_last_result_name</title>
<!-- Node1 -->
<g id="Node000001" class="node">
<title>Node1</title>
<g id="a_Node000001"><a xlink:title=" ">
<polygon fill="#999999" stroke="#666666" points="346.5,-39 237.5,-39 237.5,-19 346.5,-19 346.5,-39"/>
<text xml:space="preserve" text-anchor="middle" x="292" y="-25.5" font-family="Helvetica,sans-Serif" font-size="10.00">get_last_result_name</text>
</a>
</g>
</g>
<!-- Node2 -->
<g id="Node000002" class="node">
<title>Node2</title>
<g id="a_Node000002"><a xlink:href="web__server_8c.html#afcbb48d855a9694e7f2675ec54c91a95" target="_top" xlink:title=" ">
<polygon fill="white" stroke="#666666" points="194.75,-58 128.5,-58 128.5,-38 194.75,-38 194.75,-58"/>
<text xml:space="preserve" text-anchor="middle" x="161.62" y="-44.5" font-family="Helvetica,sans-Serif" font-size="10.00">get_handler</text>
</a>
</g>
</g>
<!-- Node1&#45;&gt;Node2 -->
<g id="edge1_Node000001_Node000002" class="edge">
<title>Node1&#45;&gt;Node2</title>
<g id="a_edge1_Node000001_Node000002"><a xlink:title=" ">
<path fill="none" stroke="#63b8ff" d="M226.16,-38.6C215.42,-40.19 204.71,-41.77 195.23,-43.17"/>
<polygon fill="#63b8ff" stroke="#63b8ff" points="226.42,-42.1 235.8,-37.17 225.4,-35.17 226.42,-42.1"/>
</a>
</g>
</g>
<!-- Node5 -->
<g id="Node000005" class="node">
<title>Node5</title>
<g id="a_Node000005"><a xlink:href="web__server_8c.html#adc7b4f6e2978a7866fa572b720f94d61" target="_top" xlink:title=" ">
<polygon fill="white" stroke="#666666" points="201.5,-20 121.75,-20 121.75,0 201.5,0 201.5,-20"/>
<text xml:space="preserve" text-anchor="middle" x="161.62" y="-6.5" font-family="Helvetica,sans-Serif" font-size="10.00">status_handler</text>
</a>
</g>
</g>
<!-- Node1&#45;&gt;Node5 -->
<g id="edge3_Node000001_Node000005" class="edge">
<title>Node1&#45;&gt;Node5</title>
<g id="a_edge3_Node000001_Node000005"><a xlink:title=" ">
<path fill="none" stroke="#63b8ff" d="M226,-19.38C217.68,-18.15 209.38,-16.92 201.66,-15.78"/>
<polygon fill="#63b8ff" stroke="#63b8ff" points="225.4,-22.83 235.8,-20.83 226.42,-15.9 225.4,-22.83"/>
</a>
</g>
</g>
<!-- Node3 -->
<g id="Node000003" class="node">
<title>Node3</title>
<g id="a_Node000003"><a xlink:href="web__server_8c.html#a440992a6db6af61fb71e65ddf68e71b0" target="_top" xlink:title=" ">
<polygon fill="#fff0f0" stroke="red" points="85.75,-39 0,-39 0,-19 85.75,-19 85.75,-39"/>
<text xml:space="preserve" text-anchor="middle" x="42.88" y="-25.5" font-family="Helvetica,sans-Serif" font-size="10.00">start_webserver</text>
</a>
</g>
</g>
<!-- Node2&#45;&gt;Node3 -->
<g id="edge2_Node000002_Node000003" class="edge">
<title>Node2&#45;&gt;Node3</title>
<g id="a_edge2_Node000002_Node000003"><a xlink:title=" ">
<path fill="none" stroke="#63b8ff" d="M116.95,-40.89C106.77,-39.24 95.95,-37.47 85.84,-35.83"/>
<polygon fill="#63b8ff" stroke="#63b8ff" points="116.18,-44.31 126.61,-42.46 117.3,-37.4 116.18,-44.31"/>
</a>
</g>
</g>
<!-- Node5&#45;&gt;Node3 -->
<g id="edge4_Node000005_Node000003" class="edge">
<title>Node5&#45;&gt;Node3</title>
<g id="a_edge4_Node000005_Node000003"><a xlink:title=" ">
<path fill="none" stroke="#63b8ff" d="M110.2,-18.21C102.12,-19.52 93.84,-20.87 85.98,-22.15"/>
<polygon fill="#63b8ff" stroke="#63b8ff" points="110.62,-21.68 119.93,-16.62 109.5,-14.77 110.62,-21.68"/>
</a>
</g>
</g>
</g>
</svg>
</svg>

<style type='text/css'>
<![CDATA[
[data-mouse-over-selected='false'] { opacity: 0.7; }
[data-mouse-over-selected='true']  { opacity: 1.0; }
]]>
</style>
<script type="application/ecmascript"><![CDATA[
document.addEventListener('DOMContentLoaded', (event) => {
  highlightEdges();
  highlightAdjacentNodes();
});
]]></script>
</svg>
