<?xml version="1.0" encoding="UTF-8" standalone="no"?>
<!DOCTYPE svg PUBLIC "-//W3C//DTD SVG 1.1//EN"
 "http://www.w3.org/Graphics/SVG/1.1/DTD/svg11.dtd">
<!-- Generated by graphviz version 14.1.3 (20260303.0454)
 -->
<!-- Title: save_handler Pages: 1 -->
<svg width="246pt" height="192pt"
 viewBox="0.00 0.00 246.00 192.00" xmlns="http://www.w3.org/2000/svg" xmlns:xlink="http://www.w3.org/1999/xlink">
<g id="graph0" class="graph" transform="scale(1 1) rotate(0) translate(4 188)">
<title>save_handler</title>
<!-- Node1 -->
<g id="Node000001" class="node">
<title>Node1</title>
<g id="a_Node000001"><a xlink:title=" ">
<polygon fill="#999999" stroke="#666666" points="73.75,-96 0,-96 0,-76 73.75,-76 73.75,-96"/>
<text xml:space="preserve" text-anchor="middle" x="36.88" y="-82.5" font-family="Helvetica,sans-Serif" font-size="10.00">save_handler</text>
</a>
</g>
</g>
<!-- Node2 -->
<g id="Node000002" class="node">
<title>Node2</title>
<g id="a_Node000002"><a xlink:href="app__queue_8c.html#a9fa03597c63251b0a5805a8df19b9004" target="_top" xlink:title=" ">
<polygon fill="white" stroke="#666666" points="218.75,-184 129.25,-184 129.25,-164 218.75,-164 218.75,-184"/>
<text xml:space="preserve" text-anchor="middle" x="174" y="-170.5" font-family="Helvetica,sans-Serif" font-size="10.00">app_queue_send</text>
</a>
</g>
</g>
<!-- Node1&#45;&gt;Node2 -->
<g id="edge1_Node000001_Node000002" class="edge">
<title>Node1&#45;&gt;Node2</title>
<g id="a_edge1_Node000001_Node000002"><a xlink:title=" ">
<path fill="none" stroke="#63b8ff" d="M46.01,-96.48C58.25,-111.57 82.86,-139.3 109.75,-155 112.53,-156.63 115.47,-158.12 118.49,-159.5"/>
<polygon fill="#63b8ff" stroke="#63b8ff" points="117.01,-162.68 127.59,-163.17 119.63,-156.19 117.01,-162.68"/>
</a>
</g>
</g>
<!-- Node3 -->
<g id="Node000003" class="node">
<title>Node3</title>
<g id="a_Node000003"><a xlink:href="config__manager_8c.html#a077bae0ce61a46345258a72d83386c33" target="_top" xlink:title=" ">
<polygon fill="white" stroke="#666666" points="226.25,-146 121.75,-146 121.75,-114 226.25,-114 226.25,-146"/>
<text xml:space="preserve" text-anchor="start" x="129.75" y="-132.5" font-family="Helvetica,sans-Serif" font-size="10.00">config_get_led_blink</text>
<text xml:space="preserve" text-anchor="middle" x="174" y="-120.5" font-family="Helvetica,sans-Serif" font-size="10.00">_quantity</text>
</a>
</g>
</g>
<!-- Node1&#45;&gt;Node3 -->
<g id="edge2_Node000001_Node000003" class="edge">
<title>Node1&#45;&gt;Node3</title>
<g id="a_edge2_Node000001_Node000003"><a xlink:title=" ">
<path fill="none" stroke="#63b8ff" d="M69.9,-96.43C82.4,-100.5 97.17,-105.31 111.56,-109.99"/>
<polygon fill="#63b8ff" stroke="#63b8ff" points="110.42,-113.3 121.02,-113.07 112.59,-106.65 110.42,-113.3"/>
</a>
</g>
</g>
<!-- Node4 -->
<g id="Node000004" class="node">
<title>Node4</title>
<g id="a_Node000004"><a xlink:href="config__manager_8c.html#aef41760060ac43d43951c58f15cdda4f" target="_top" xlink:title=" ">
<polygon fill="white" stroke="#666666" points="238.25,-96 109.75,-96 109.75,-76 238.25,-76 238.25,-96"/>
<text xml:space="preserve" text-anchor="middle" x="174" y="-82.5" font-family="Helvetica,sans-Serif" font-size="10.00">config_get_led_blink_time</text>
</a>
</g>
</g>
<!-- Node1&#45;&gt;Node4 -->
<g id="edge3_Node000001_Node000004" class="edge">
<title>Node1&#45;&gt;Node4</title>
<g id="a_edge3_Node000001_Node000004"><a xlink:title=" ">
<path fill="none" stroke="#63b8ff" d="M74.09,-86C81.56,-86 89.68,-86 97.96,-86"/>
<polygon fill="#63b8ff" stroke="#63b8ff" points="97.79,-89.5 107.79,-86 97.79,-82.5 97.79,-89.5"/>
</a>
</g>
</g>
<!-- Node5 -->
<g id="Node000005" class="node">
<title>Node5</title>
<g id="a_Node000005"><a xlink:href="config__manager_8c.html#ae6fa077d07080b40fe332fee8cae56a3" target="_top" xlink:title=" ">
<polygon fill="white" stroke="#666666" points="226.62,-58 121.38,-58 121.38,-38 226.62,-38 226.62,-58"/>
<text xml:space="preserve" text-anchor="middle" x="174" y="-44.5" font-family="Helvetica,sans-Serif" font-size="10.00">config_get_led_color</text>
</a>
</g>
</g>
<!-- Node1&#45;&gt;Node5 -->
<g id="edge4_Node000001_Node000005" class="edge">
<title>Node1&#45;&gt;Node5</title>
<g id="a_edge4_Node000001_Node000005"><a xlink:title=" ">
<path fill="none" stroke="#63b8ff" d="M74.09,-75.82C89.73,-71.42 108.26,-66.21 125.03,-61.49"/>
<polygon fill="#63b8ff" stroke="#63b8ff" points="125.61,-64.96 134.29,-58.89 123.72,-58.22 125.61,-64.96"/>
</a>
</g>
</g>
<!-- Node6 -->
<g id="Node000006" class="node">
<title>Node6</title>
<g id="a_Node000006"><a xlink:href="web__server_8c.html#ae00dcea5745c2c0ad601cdfba82264b0" target="_top" xlink:title=" ">
<polygon fill="white" stroke="#666666" points="213.88,-20 134.12,-20 134.12,0 213.88,0 213.88,-20"/>
<text xml:space="preserve" text-anchor="middle" x="174" y="-6.5" font-family="Helvetica,sans-Serif" font-size="10.00">get_query_u32</text>
</a>
</g>
</g>
<!-- Node1&#45;&gt;Node6 -->
<g id="edge5_Node000001_Node000006" class="edge">
<title>Node1&#45;&gt;Node6</title>
<g id="a_edge5_Node000001_Node000006"><a xlink:title=" ">
<path fill="none" stroke="#63b8ff" d="M48.17,-75.71C61.37,-63.05 85.47,-41.68 109.75,-29 113.98,-26.79 118.51,-24.8 123.12,-23.01"/>
<polygon fill="#63b8ff" stroke="#63b8ff" points="124.25,-26.32 132.53,-19.7 121.93,-19.72 124.25,-26.32"/>
</a>
</g>
</g>
</g>
</svg>
